<svg xmlns="http://www.w3.org/2000/svg" xmlns:xlink="http://www.w3.org/1999/xlink" width="23.083" height="25.14" viewBox="0 0 23.083 25.14">
  <defs>
    <clipPath id="clip-path">
      <rect id="Rectangle_162" data-name="Rectangle 162" width="23.083" height="25.14" fill="none"/>
    </clipPath>
  </defs>
  <g id="Shield_book" data-name="Shield book" transform="translate(0 0)">
    <g id="Group_193" data-name="Group 193" transform="translate(0 0)" clip-path="url(#clip-path)">
      <path id="Path_2285" data-name="Path 2285" d="M10.77,17.923l3.062.836a.573.573,0,0,0,.149.02.56.56,0,0,0,.146-1.1l-3.062-.836a.56.56,0,0,0-.3,1.081" transform="translate(-5.232 -8.498)"/>
      <path id="Path_2286" data-name="Path 2286" d="M14.128,23.986l-3.062-.836a.56.56,0,1,0-.3,1.081l3.062.837a.585.585,0,0,0,.148.019.56.56,0,0,0,.147-1.1" transform="translate(-5.232 -11.685)"/>
      <path id="Path_2287" data-name="Path 2287" d="M22.07,0H1.013A1.013,1.013,0,0,0,0,1.013V8.575s.006,7.657.009,7.665c0,5.265,8.474,8.7,11.407,8.89v.009c.039,0,.083,0,.125,0s.086,0,.125,0v-.009c2.934-.195,11.408-3.626,11.408-8.89,0-.008.009-7.665.009-7.665V1.013A1.014,1.014,0,0,0,22.07,0M3.311,15.856V4.482a.28.28,0,0,1,.11-.223.287.287,0,0,1,.244-.048l7.009,1.915V18.081L3.517,16.126a.28.28,0,0,1-.206-.27m16.461,0a.28.28,0,0,1-.206.27l-6.912,1.888V6.06l6.765-1.848a.285.285,0,0,1,.244.048.281.281,0,0,1,.11.223Z" transform="translate(0 0)"/>
      <path id="Path_2288" data-name="Path 2288" d="M31.414,16.842l-3.062.836a.56.56,0,0,0,.147,1.1.57.57,0,0,0,.148-.02l3.062-.836a.56.56,0,0,0-.3-1.081" transform="translate(-14.114 -8.498)"/>
      <path id="Path_2289" data-name="Path 2289" d="M31.414,23.15l-3.062.836a.56.56,0,0,0,.147,1.1.567.567,0,0,0,.148-.02l3.062-.836a.56.56,0,1,0-.3-1.081" transform="translate(-14.114 -11.685)"/>
    </g>
  </g>
</svg>
