<svg xmlns="http://www.w3.org/2000/svg" width="99.891" height="99.891" viewBox="0 0 99.891 99.891">
  <path id="profile-micro-icon" d="M549.845,195.7a49.945,49.945,0,1,0,49.945,49.945A50.016,50.016,0,0,0,549.845,195.7Zm0,7.865A42.083,42.083,0,0,1,581.5,273.371c-1.18-.59-2.36-1.18-3.736-1.966-4.326-2.36-11.8-5.506-15.534-7.079V259.41a18.019,18.019,0,0,0,2.753-2.753,13.378,13.378,0,0,0,2.95-9.635,8.646,8.646,0,0,0,1.966-5.309,8.147,8.147,0,0,0-1.18-4.523c1.573-4.523,3.933-13.568-1.377-18.287-6.686-5.9-21.237-4.326-23.6-3.736a10.912,10.912,0,0,0-6.1,4.129,6.067,6.067,0,0,0-3.539.983,7.654,7.654,0,0,0-3.539,4.916c-.787,3.343.2,8.259,1.18,11.4a7.05,7.05,0,0,0-2.163,4.523,8.28,8.28,0,0,0,3.343,7.472c.393,2.36.983,5.9,2.163,7.865A11.235,11.235,0,0,0,538.244,260v4.719c-2.163.787-5.506,1.966-9.832,3.736-3.539,1.376-7.472,2.95-10.422,4.326a42.072,42.072,0,0,1-9.832-27.136A41.545,41.545,0,0,1,549.845,203.565ZM523.693,278.68c2.36-.983,4.916-2.163,7.276-2.949,7.472-2.95,12.191-4.523,12.191-4.523a4.02,4.02,0,0,0,2.753-3.736v-9.439a3.863,3.863,0,0,0-1.77-3.343,8.972,8.972,0,0,1-2.36-2.36,38.5,38.5,0,0,1-1.376-6.489,5.4,5.4,0,0,0-1.966-3.146,4.288,4.288,0,0,1-.983-.787,4.229,4.229,0,0,0,2.36-1.77,3.965,3.965,0,0,0,.393-3.343c-.983-2.753-2.163-7.472-1.77-9.635h.2a3.888,3.888,0,0,0,4.719-1.966c.393-.787,1.573-2.36,2.556-2.556,3.343-.787,13.568-.787,16.714,1.966,1.573,1.376.393,7.275-1.376,11.4-.787,1.77-.59,3.736,1.18,4.719a.687.687,0,0,1,.2.393,2.275,2.275,0,0,1-.983,1.376,3.844,3.844,0,0,0-1.18,3.736c.2.787.393,3.736-.983,5.113a11.541,11.541,0,0,1-2.36,2.36,4.125,4.125,0,0,0-2.556,3.736v9.635a4.406,4.406,0,0,0,2.359,3.736c.2,0,11.6,4.719,17.3,7.669a4.926,4.926,0,0,1,1.376.786,41.652,41.652,0,0,1-25.759,8.849A45.047,45.047,0,0,1,523.693,278.68Z" transform="translate(-499.9 -195.7)" fill="#010101"/>
</svg>
