<svg xmlns="http://www.w3.org/2000/svg" xmlns:xlink="http://www.w3.org/1999/xlink" width="24.788" height="20" viewBox="0 0 24.788 20">
  <defs>
    <clipPath id="clip-path">
      <rect id="Rectangle_171" data-name="Rectangle 171" width="24.788" height="20" transform="translate(0 0)" fill="none"/>
    </clipPath>
  </defs>
  <g id="Grid_icon" data-name="Grid icon" transform="translate(0 0)">
    <g id="Group_190" data-name="Group 190" clip-path="url(#clip-path)">
      <path id="Path_2285" data-name="Path 2285" d="M23.782,0H1.006A1.006,1.006,0,0,0,0,1.006V18.994A1.006,1.006,0,0,0,1.006,20H23.782a1.006,1.006,0,0,0,1.006-1.006V1.006A1.006,1.006,0,0,0,23.782,0M9.6,8.008h5.58v3.984H9.6Zm5.58,9.98H9.6V14h5.58ZM2.012,8.008h5.58v3.984H2.012Zm7.592-6h5.58V6H9.6Zm7.592,6h5.58v3.984H17.2ZM22.776,6H17.2V2.012h5.58ZM7.592,6H2.012V2.012h5.58ZM2.012,14h5.58v3.983H2.012ZM17.2,14h5.58v3.983H17.2Z" transform="translate(0 0)"/>
    </g>
  </g>
</svg>
