<svg xmlns="http://www.w3.org/2000/svg" xmlns:xlink="http://www.w3.org/1999/xlink" width="15" height="15" viewBox="0 0 15 15">
  <defs>
    <clipPath id="clip-path">
      <rect id="Rectangle_158" data-name="Rectangle 158" width="15" height="15" fill="none"/>
    </clipPath>
  </defs>
  <g id="Info_icon" data-name="Info icon" transform="translate(0 0)">
    <g id="Group_188" data-name="Group 188" transform="translate(0 0)" clip-path="url(#clip-path)">
      <path id="Path_2281" data-name="Path 2281" d="M7.5,15A7.5,7.5,0,1,1,15,7.5,7.509,7.509,0,0,1,7.5,15m0-13.225A5.725,5.725,0,1,0,13.225,7.5,5.732,5.732,0,0,0,7.5,1.775" transform="translate(0 0)"/>
      <path id="Path_2282" data-name="Path 2282" d="M21.354,26.478a.887.887,0,0,1-.887-.887V22.859h-.13a.887.887,0,0,1,0-1.775h1.017a.887.887,0,0,1,.887.887v3.619a.887.887,0,0,1-.887.887" transform="translate(-13.697 -14.848)"/>
      <path id="Path_2283" data-name="Path 2283" d="M22.892,11.065A1.036,1.036,0,1,0,23.928,12.1a1.036,1.036,0,0,0-1.035-1.035" transform="translate(-15.393 -7.792)"/>
    </g>
  </g>
</svg>
