<svg xmlns="http://www.w3.org/2000/svg" xmlns:xlink="http://www.w3.org/1999/xlink" width="550" height="152.298" viewBox="0 0 550 152.298"><defs><clipPath id="a"><rect width="550" height="152.298" fill="none"/></clipPath></defs><path d="M199.409,62.026h37.94V71.4h-13.39v71.192H212.8V71.4H199.409Z" transform="translate(-74.623 -23.212)" fill="#fff"/><g clip-path="url(#a)"><path d="M265.743,82.158c0-11.27,3.683-21.2,18.858-21.2,11.047,0,16.18,5.579,16.18,14.618v8.034H290.292V78.029c0-5.133-1.785-8.369-6.472-8.369-5.8,0-6.919,4.129-6.919,13.837V123c0,9.485,3.013,11.159,6.584,11.159,4.128,0,6.807-2.9,6.807-9.6v-5.579h10.489v8.927c0,8.481-3.459,14.953-16.4,14.953-14.06,0-18.635-7.476-18.635-19.974Z" transform="translate(-99.447 -22.811)" fill="#fff"/><path d="M334.038,62.026h15.4L362.6,128.978h.224V62.026h10.489v80.566H357.249L344.081,73.854h-.223v68.739h-9.82Z" transform="translate(-125.004 -23.212)" fill="#fff"/><path d="M408.4,119.047h10.489v7.923c0,3.236.446,7.588,4.24,7.588,4.13,0,4.576-3.9,4.576-8.034v-64.5h11.158V127.75c0,9.821-4.687,15.511-15.734,15.511-9.262,0-14.73-2.79-14.73-13.837Z" transform="translate(-152.831 -23.211)" fill="#fff"/><path d="M482.722,61.834h17.9v4.422h-6.318V99.851h-5.265V66.256h-6.319Z" transform="translate(-180.645 -23.14)" fill="#fff"/><path d="M518.308,61.834h5.265V78.157h7V61.834h5.265V99.851h-5.265V82.58h-7V99.851h-5.265Z" transform="translate(-193.962 -23.14)" fill="#fff"/><path d="M552.546,61.834h14.323v4.422h-9.057v11.9h8.53V82.58h-8.53V95.428h9.057v4.422H552.546Z" transform="translate(-206.774 -23.14)" fill="#fff"/><path d="M593.768,71.332c0-5.317,1.737-10,8.9-10,5.213,0,7.634,2.633,7.634,6.9v3.792h-4.949V69.386c0-2.422-.843-3.95-3.054-3.95-2.738,0-3.264,1.947-3.264,6.529V90.6c0,4.476,1.421,5.265,3.106,5.265,1.948,0,3.212-1.369,3.212-4.528V88.709H610.3v4.212c0,4-1.633,7.056-7.74,7.056-6.634,0-8.793-3.528-8.793-9.425Z" transform="translate(-222.201 -22.95)" fill="#fff"/><path d="M625.733,71.332c0-5.317,1.738-10,8.9-10,6.793,0,8.951,3.528,8.951,9.425v19.22c0,5.318-1.738,10.006-8.951,10.006-6.74,0-8.9-3.528-8.9-9.425ZM631,90.867c0,3.265,1.474,5,3.633,5,2.212,0,3.686-1.737,3.686-5V70.911c0-3.738-1.264-5.476-3.686-5.476-2.369,0-3.633,1.738-3.633,5.476Z" transform="translate(-234.163 -22.95)" fill="#fff"/><path d="M660.226,61.834h5.266V95.428h8.846v4.422H660.226Z" transform="translate(-247.071 -23.14)" fill="#fff"/><path d="M686.726,61.834h5.266V95.428h8.846v4.422H686.726Z" transform="translate(-256.987 -23.14)" fill="#fff"/><path d="M713.226,61.834h14.322v4.422h-9.057v11.9h8.53V82.58h-8.53V95.428h9.057v4.422H713.226Z" transform="translate(-266.904 -23.14)" fill="#fff"/><path d="M753.676,71.7V69.753c0-2.685-1.316-4.318-3.37-4.318-2.422,0-3.633,2.212-3.633,6.265V90.867c0,3.055,1.474,5,3.633,5a15.388,15.388,0,0,0,3.37-.368V84.339H750.2V79.915h8.741V99.03a44.282,44.282,0,0,1-8.688.947c-6.687,0-8.845-3.528-8.845-9.425V71.332c0-7.108,2.158-10,8.951-10,5.635,0,8.583,2.054,8.583,6.9V71.7Z" transform="translate(-277.451 -22.95)" fill="#fff"/><path d="M775.645,61.834h14.323v4.422h-9.058v11.9h8.53V82.58h-8.53V95.428h9.058v4.422H775.645Z" transform="translate(-290.263 -23.14)" fill="#fff"/><path d="M817.538,71.332c0-5.317,1.738-10,8.9-10,6.792,0,8.951,3.528,8.951,9.425v19.22c0,5.318-1.738,10.006-8.951,10.006-6.74,0-8.9-3.528-8.9-9.425ZM822.8,90.867c0,3.265,1.474,5,3.633,5,2.212,0,3.686-1.737,3.686-5V70.911c0-3.738-1.264-5.476-3.686-5.476-2.37,0-3.633,1.738-3.633,5.476Z" transform="translate(-305.94 -22.95)" fill="#fff"/><path d="M853.714,61.834h14.322v4.422h-9.057v11.9h8.53V82.58h-8.53V99.851h-5.265Z" transform="translate(-319.478 -23.14)" fill="#fff"/><path d="M512.095,167.779c0,1.377,0,6.836.138,8.029a.827.827,0,0,1-.872.5c-.551-.78-1.882-2.385-5.873-6.929l-10.646-12.113c-1.239-1.422-4.359-5.186-5.322-6.2h-.092a11.665,11.665,0,0,0-.23,2.982v10c0,2.157.046,8.122.827,9.5.275.5,1.193.779,2.34.871l1.422.138a.841.841,0,0,1-.091,1.147c-2.065-.092-3.671-.138-5.369-.138-1.926,0-3.166.046-4.772.138a.849.849,0,0,1-.092-1.147l1.239-.138c1.055-.138,1.79-.412,2.019-.917.643-1.653.6-7.25.6-9.453V150.8a4.208,4.208,0,0,0-1.009-3.3,4.973,4.973,0,0,0-2.845-1.1l-.78-.091a.8.8,0,0,1,.092-1.147c1.927.137,4.359.137,5.185.137a14.876,14.876,0,0,0,2.111-.137c.918,2.34,6.332,8.4,7.846,10.094l4.451,5c3.167,3.533,5.415,6.1,7.572,8.3h.091a4.626,4.626,0,0,0,.183-1.927v-9.82c0-2.156-.046-8.121-.917-9.5-.276-.414-1.01-.69-2.845-.919l-.78-.091c-.321-.275-.275-1.01.092-1.147,2.111.091,3.671.137,5.414.137,1.974,0,3.167-.046,4.727-.137A.807.807,0,0,1,516,146.3l-.643.091c-1.468.229-2.385.6-2.569.964-.78,1.652-.688,7.342-.688,9.452Z" transform="translate(-180.556 -54.321)" fill="#fff"/><path d="M542.138,152.177c0-4.772-.091-5.461-2.8-5.782l-.733-.092c-.275-.183-.183-1.009.091-1.147,1.973.092,3.533.138,5.415.138h8.626a61.605,61.605,0,0,0,6.2-.138,51.708,51.708,0,0,1,.734,6.1.9.9,0,0,1-1.148.094c-.688-2.158-1.1-3.763-3.487-4.359a21.772,21.772,0,0,0-4.451-.277h-3.3c-1.377,0-1.377.092-1.377,1.837v9.177c0,1.285.138,1.285,1.514,1.285h2.662a16.983,16.983,0,0,0,3.9-.276c.551-.185.872-.459,1.1-1.607l.367-1.88a.91.91,0,0,1,1.193.045c0,1.1-.185,2.891-.185,4.635,0,1.651.185,3.4.185,4.4a.906.906,0,0,1-1.193.046l-.413-1.789a1.962,1.962,0,0,0-1.422-1.744,15.369,15.369,0,0,0-3.533-.229h-2.662c-1.377,0-1.514.046-1.514,1.24v6.469c0,2.432.138,3.992.872,4.772.551.551,1.514,1.056,5.552,1.056,3.534,0,4.865-.183,5.874-.688.826-.46,2.065-2.066,3.258-4.451a.842.842,0,0,1,1.147.322,39.923,39.923,0,0,1-2.065,6.377c-4.13-.091-8.213-.138-12.3-.138h-4.129c-1.973,0-3.533.046-6.241.138a.892.892,0,0,1-.092-1.147l1.514-.137c2.616-.23,2.846-.917,2.846-5.737Z" transform="translate(-201.186 -54.32)" fill="#fff"/><path d="M572.684,146.257a.754.754,0,0,1,.138-1.1c1.239.092,3.3.138,4.725.138,1.285,0,3.626-.046,5.232-.138.413.138.367.78.091,1.1l-1.056.091c-.963.092-1.514.367-1.514.782a37,37,0,0,0,2.385,6.148c2.571,5.736,5.278,11.471,7.939,17.114,1.1-2.294,2.34-4.864,3.533-7.434a8.281,8.281,0,0,0,.734-1.88,3.972,3.972,0,0,0-.367-1.193c-1.606-3.67-3.3-7.342-5.047-11.011-.689-1.423-1.377-2.387-2.937-2.525l-1.1-.091a.71.71,0,0,1,.091-1.1c1.331.092,3.074.138,4.91.138,2.294,0,3.992-.046,5.047-.138.321.138.367.735.092,1.1l-1.193.091c-1.79.138-1.836.459-.963,2.525.963,2.247,2.248,5.138,3.533,7.982.872-1.788,1.7-3.532,2.707-6.011,1.652-3.9,1.423-4.4-.046-4.5l-1.377-.091c-.322-.458-.23-.964.091-1.1,1.239.092,2.615.138,4.313.138,1.514,0,3.349-.046,4.4-.138.321.138.367.735.091,1.1l-1.33.091c-1.927.138-2.753,2.2-3.762,4.084-.963,1.7-2.891,5.69-3.579,7.3a3.74,3.74,0,0,0-.413,1.1,3.472,3.472,0,0,0,.322,1.1c1.56,3.534,3.166,6.974,4.68,10.461,1.422-3.211,2.8-6.423,4.13-9.681.918-2.2,3.349-8.306,3.671-9.131a27.87,27.87,0,0,0,1.377-4.176c0-.643-.551-1.01-1.515-1.056l-1.33-.091c-.368-.412-.322-.918.045-1.1,1.744.092,2.983.138,4.406.138,1.743,0,3.074-.046,4.267-.138.367.138.412.735.091,1.1l-.872.091c-2.295.23-2.707,1.606-5.461,7.985l-3.349,7.755c-2.019,4.68-3.855,9.176-5.736,14.086a.983.983,0,0,1-.551.137,1.471,1.471,0,0,1-.643-.137c-1.468-4.083-4.129-9.819-5.552-13.031a141.234,141.234,0,0,0-5.736,13.031.981.981,0,0,1-.551.137,1.845,1.845,0,0,1-.688-.137c-.78-1.927-2.57-6.057-3.167-7.388-2.936-6.377-5.781-12.755-8.764-19.134-.872-1.881-1.422-3.121-3.35-3.3Z" transform="translate(-214.244 -54.32)" fill="#fff"/><path d="M664.338,152.268c0-5.093-.459-5.645-3.166-5.874l-1.148-.091c-.275-.183-.183-1.009.092-1.147,2.662.091,4.221.138,6.149.138,1.835,0,3.4-.046,5.231-.138.275.138.367.964.092,1.147l-.688.091c-2.708.367-2.8,1.011-2.8,5.874v17.024c0,3.625-.183,6.791-1.055,8.9-1.514,3.67-4.773,6.606-9.04,6.606-.55,0-1.972-.046-1.972-.962,0-.781.688-2.112,1.651-2.112a5.689,5.689,0,0,1,1.7.276,7.07,7.07,0,0,0,1.927.322,1.959,1.959,0,0,0,1.835-1.193c1.055-2.157,1.193-9.039,1.193-11.517Z" transform="translate(-245.501 -54.32)" fill="#fff"/><path d="M686.4,152.177c0-4.772-.091-5.461-2.8-5.782l-.734-.092c-.275-.183-.183-1.009.091-1.147,1.973.092,3.533.138,5.415.138H697a61.6,61.6,0,0,0,6.2-.138,51.668,51.668,0,0,1,.735,6.1.9.9,0,0,1-1.148.094c-.688-2.158-1.1-3.763-3.487-4.359a21.765,21.765,0,0,0-4.451-.277h-3.3c-1.376,0-1.376.092-1.376,1.837v9.177c0,1.285.137,1.285,1.514,1.285h2.661a16.986,16.986,0,0,0,3.9-.276c.551-.185.872-.459,1.1-1.607l.367-1.88a.91.91,0,0,1,1.193.045c0,1.1-.184,2.891-.184,4.635,0,1.651.184,3.4.184,4.4a.906.906,0,0,1-1.193.046l-.413-1.789a1.962,1.962,0,0,0-1.422-1.744,15.371,15.371,0,0,0-3.533-.229h-2.661c-1.377,0-1.514.046-1.514,1.24v6.469c0,2.432.137,3.992.871,4.772.551.551,1.514,1.056,5.553,1.056,3.534,0,4.865-.183,5.874-.688.825-.46,2.065-2.066,3.257-4.451a.843.843,0,0,1,1.148.322,39.9,39.9,0,0,1-2.065,6.377c-4.129-.091-8.213-.138-12.3-.138h-4.13c-1.973,0-3.533.046-6.24.138a.892.892,0,0,1-.092-1.147l1.514-.137c2.616-.23,2.845-.917,2.845-5.737Z" transform="translate(-255.172 -54.32)" fill="#fff"/><path d="M726.571,152.223c0-4.359-.138-5.138-2.019-5.369l-1.469-.183a.765.765,0,0,1,.046-1.146c2.57-.231,5.736-.368,10.233-.368,2.845,0,5.553.229,7.663,1.376a6.838,6.838,0,0,1,3.808,6.425c0,4.359-3.441,6.744-5.735,7.662-.23.275,0,.733.229,1.1,3.67,5.919,6.1,9.589,9.223,12.205a5.494,5.494,0,0,0,3.167,1.285.383.383,0,0,1,.046.641,7.107,7.107,0,0,1-2.018.23c-3.9,0-6.241-1.146-9.5-5.782-1.193-1.7-3.074-4.864-4.5-6.927-.687-1.01-1.422-1.469-3.258-1.469-2.064,0-2.156.046-2.156,1.009V168.7c0,4.819.092,5.369,2.753,5.736l.964.138a.9.9,0,0,1-.092,1.147c-2.065-.092-3.625-.138-5.46-.138-1.927,0-3.579.046-5.736.138a.882.882,0,0,1-.091-1.147l1.146-.138c2.662-.321,2.753-.917,2.753-5.736Zm3.762,6.562a3.618,3.618,0,0,0,.138,1.514c.138.138.826.229,3.166.229a7.687,7.687,0,0,0,4.726-1.193c1.24-.964,2.294-2.57,2.294-5.69,0-3.625-2.249-7.067-7.341-7.067-2.845,0-2.983.183-2.983,1.469Z" transform="translate(-270.377 -54.321)" fill="#fff"/><path d="M775.392,175.955a14.313,14.313,0,0,1-7.158-1.7,21.2,21.2,0,0,1-1.238-6.423c.229-.321.917-.413,1.1-.138.688,2.339,2.57,6.837,7.892,6.837,3.854,0,5.736-2.524,5.736-5.277,0-2.019-.413-4.268-3.763-6.424l-4.359-2.845c-2.295-1.514-4.956-4.13-4.956-7.893,0-4.359,3.394-7.891,9.36-7.891a17.734,17.734,0,0,1,4.267.6,6.173,6.173,0,0,0,1.606.275,20.074,20.074,0,0,1,.826,5.6c-.184.275-.918.414-1.147.137-.6-2.2-1.836-5.184-6.24-5.184-4.5,0-5.461,2.983-5.461,5.093,0,2.662,2.2,4.589,3.9,5.645l3.672,2.295c2.89,1.789,5.735,4.451,5.735,8.81,0,5.046-3.808,8.487-9.773,8.487" transform="translate(-287.026 -53.964)" fill="#fff"/><path d="M803.6,152.177c0-4.772-.091-5.461-2.8-5.782l-.734-.092c-.275-.183-.183-1.009.091-1.147,1.973.092,3.533.138,5.415.138H814.2a61.587,61.587,0,0,0,6.2-.138,51.652,51.652,0,0,1,.735,6.1.9.9,0,0,1-1.148.094c-.688-2.158-1.1-3.763-3.488-4.359a21.767,21.767,0,0,0-4.451-.277h-3.3c-1.377,0-1.377.092-1.377,1.837v9.177c0,1.285.137,1.285,1.514,1.285h2.661a16.981,16.981,0,0,0,3.9-.276c.551-.185.872-.459,1.1-1.607l.367-1.88a.909.909,0,0,1,1.193.045c0,1.1-.184,2.891-.184,4.635,0,1.651.184,3.4.184,4.4a.905.905,0,0,1-1.193.046l-.414-1.789a1.962,1.962,0,0,0-1.422-1.744,15.368,15.368,0,0,0-3.533-.229h-2.661c-1.377,0-1.514.046-1.514,1.24v6.469c0,2.432.137,3.992.871,4.772.551.551,1.514,1.056,5.552,1.056,3.534,0,4.865-.183,5.874-.688.825-.46,2.065-2.066,3.258-4.451a.842.842,0,0,1,1.147.322A40.04,40.04,0,0,1,822,175.715c-4.13-.091-8.213-.138-12.3-.138h-4.13c-1.973,0-3.533.046-6.24.138a.892.892,0,0,1-.092-1.147l1.514-.137c2.616-.23,2.845-.917,2.845-5.737Z" transform="translate(-299.03 -54.32)" fill="#fff"/><path d="M862.086,146.3l-1.285.229c-2.385.412-3.762,3.3-6.056,7.25l-2.891,5c-2.019,3.487-2.156,3.9-2.156,7.434V168.6c0,4.911.275,5.644,2.754,5.827l1.743.138a.891.891,0,0,1-.092,1.147c-2.845-.091-4.4-.138-6.24-.138-1.927,0-3.579.046-6.011.138a.892.892,0,0,1-.091-1.147l1.422-.138c2.662-.275,2.754-.917,2.754-5.827v-2.339c0-2.524-.138-3.12-1.469-5.69l-5.415-10.554c-1.56-3.028-2.248-3.259-3.625-3.488l-1.285-.229a.841.841,0,0,1,.091-1.147c1.469.092,3.121.138,5.323.138,2.111,0,3.763-.046,4.91-.138.412.138.412.872.138,1.147l-.6.091c-1.606.23-1.927.459-1.927.827a22.667,22.667,0,0,0,1.423,3.532c1.7,3.4,3.395,7.021,5.185,10.187,1.422-2.432,2.937-5.093,4.314-7.754,1.284-2.387,2.982-5.507,2.982-6.057,0-.277-.827-.6-1.927-.735l-.826-.091a.762.762,0,0,1,.091-1.147c1.652.092,2.983.138,4.4.138s2.708-.046,4.268-.138" transform="translate(-312.086 -54.32)" fill="#fff"/><path d="M60.815,33.467c-.037-.069-.074-.141-.108-.212a1.848,1.848,0,0,1-.15-.317,1.3,1.3,0,0,0,.258.529" transform="translate(-22.662 -12.326)" fill="#fff"/><path d="M114.7,39.116h0a1.661,1.661,0,0,1,.239.073.353.353,0,0,0-.237-.073" transform="translate(-42.921 -14.638)" fill="#fff"/><path d="M108.591,36.653H93.346c.014-.015.031-.028.046-.044.864-.962.4-2.181-.016-3.259-.063-.163-.123-.32-.17-.459-.189-.556-.418-1.23-.477-1.466a13.142,13.142,0,0,0-.509-1.451,14.066,14.066,0,0,1-.891-2.841,2.194,2.194,0,0,0-.633-1.282,4.842,4.842,0,0,0-2.387-1.191,8.7,8.7,0,0,1-4.156-2.748l-.131-.234A15.412,15.412,0,0,0,82,18.578a10.1,10.1,0,0,0,6.228-3.6A6,6,0,0,0,89.152,9.3c-.814-2.226-2.9-3.355-6.191-3.355-3.355,0-7.726,1.165-11.582,2.193a38.661,38.661,0,0,1-7.555,1.58c-.087,0-.163,0-.23-.006l-.041-.06a9,9,0,0,0-3.673-3.49,7.806,7.806,0,0,0-2.919-.678c-.1,0-.2,0-.287.01A4.161,4.161,0,0,0,55.5,5.338a5.725,5.725,0,0,0-1.334.166,9.739,9.739,0,0,0-.611-1.21A8.421,8.421,0,0,0,46.021,0c-.27,0-.544.01-.837.03a3.294,3.294,0,0,0-2.04.927A8.07,8.07,0,0,0,42.113.881a3.792,3.792,0,0,0-1.566.3,4.959,4.959,0,0,0-1.484,1.087,31.263,31.263,0,0,0-3.318-.28H35.74a2.46,2.46,0,0,0-1.965.713A3.005,3.005,0,0,0,33.2,5.5l.032.106.046.1,0,.011-.128.308-.037.085L33.09,6.2a3.12,3.12,0,0,0,.469,2.966c-.843,1.428-.362,3.765-.3,4.049A1.863,1.863,0,0,0,34.3,14.623a2.121,2.121,0,0,0,.844.18,2.012,2.012,0,0,0,1.085-.315h0c-.063.24-.123.491-.179.752a3.571,3.571,0,0,1-.561.076,7.2,7.2,0,0,1-1.341-.3,4.95,4.95,0,0,0-1.433-.277c-.036,0-.071,0-.106,0l-.17-.038a10.1,10.1,0,0,1-1.743-.5,12.959,12.959,0,0,0-6.028-4.578l-2.012-.505c-.057-.014-.112-.025-.167-.034l-.712-.185-1.139-.3-.659.976-.088.13-1.016,1.5.185.1L18.4,12.545l.648.442-.153.306-.069.139-.608,1.215.922.722.043.111a3.525,3.525,0,0,0,2.106,2,9.4,9.4,0,0,0,1.5.365c.045.009.089.016.129.024a6.275,6.275,0,0,0,2.113,1.156c.152.334.289.619.347.74a2.182,2.182,0,0,0,.937.982c.191.1,1.5.8,1.805.955a20.236,20.236,0,0,1,2.013,1.422,2.159,2.159,0,0,0,.692.364l7.667,2.432c.075.091.156.18.241.269l-4.393,4.06a2.206,2.206,0,0,0-.566.85,3.515,3.515,0,0,1-1.609,1.434,3.858,3.858,0,0,1-.442.126c-.1-.063-.206-.124-.318-.181a3.587,3.587,0,0,0-1.364-.419,1.848,1.848,0,0,0-.217-.011,2.191,2.191,0,0,0-.7.114,5.022,5.022,0,0,0-2.884,2.849,4.062,4.062,0,0,0-.252,1.643H0l4.408,4.284c3.685,3.581,5.553,8.545,5.553,14.755,0,11.1.227,53.445.236,55.015a32.244,32.244,0,0,0,1.541,10.166c2.247,6.947,6.724,12.013,12.945,14.651,4.034,1.71,8.347,3.073,12.517,4.389,8.035,2.538,15.623,4.936,18.053,8.906l2.128,3.478,2.128-3.477c2.432-3.974,10.016-6.371,18.044-8.909,4.165-1.317,8.471-2.678,12.5-4.385,6.223-2.64,10.7-7.707,12.947-14.654a32.155,32.155,0,0,0,1.54-10.166c.007-1.348.237-43.889.237-55.014,0-6.211,1.868-11.176,5.551-14.755l4.41-4.285Zm.693,3.207c-3.93,3.818-6.008,9.293-6.008,15.832,0,11.244-.233,54.613-.236,55.049.055,1.769.142,17.585-13.571,23.4-3.964,1.679-8.235,3.03-12.366,4.336-8.3,2.626-16.149,5.105-18.875,9.558l-.847,1.384-.848-1.384c-2.722-4.451-10.572-6.93-18.883-9.555-4.136-1.307-8.414-2.658-12.382-4.338-13.712-5.815-13.626-21.632-13.571-23.416,0-.422-.236-43.791-.236-55.035,0-6.538-2.078-12.012-6.008-15.832L3.7,38.155H28.372a1.079,1.079,0,0,1-.349-.38,2.691,2.691,0,0,1-.364-1.121,2.415,2.415,0,0,1,.145-1.06,3.405,3.405,0,0,1,1.859-1.855.508.508,0,0,1,.214-.025,1.935,1.935,0,0,1,.757.238c.113.057.21.119.3.174.049.032.1.061.15.09.312.157.715.218,1.742-.152a4.877,4.877,0,0,0,2.506-2.38.551.551,0,0,1,.139-.213l5.852-5.411a4.91,4.91,0,0,1-1.81-1.561l-8.19-2.6a.521.521,0,0,1-.163-.086,21.143,21.143,0,0,0-2.29-1.6c-.316-.159-1.71-.9-1.77-.935a.521.521,0,0,1-.222-.231c-.021-.046-.424-.884-.687-1.521a3.8,3.8,0,0,1-2.445-1.156c-.118-.116-1.2-.207-1.89-.459a1.878,1.878,0,0,1-1.141-1.089.91.91,0,0,1-.088-.4l-.312-.245.069-.138.406.129.053-.03a3.581,3.581,0,0,1-.025-1.474.672.672,0,0,1,.149-.379l-.4-.271.081-.152.815.34a5.3,5.3,0,0,1,.254-1.139,1.549,1.549,0,0,1,.027-.161l-.479-.266.089-.131.81.212a.416.416,0,0,1,.083.011l1.977.5a11.369,11.369,0,0,1,5.327,4.251,11.3,11.3,0,0,0,2.95.95c.565-.148,1.455.407,2.84.548a9.2,9.2,0,0,0,2.158-.35,13.862,13.862,0,0,1,1.053-3.768c-.283-.01-.511-.03-.628-.047a3.874,3.874,0,0,0-2.6.28.388.388,0,0,1-.364.018c-.116-.051-.508-2.5.1-3.193.438-.5,2.561-.423,4.084-.3a2.563,2.563,0,0,0-.366-1.142c-.091.049-.17.041-.2-.079l-.126.733a1.82,1.82,0,0,1-.492-.733s-.513.39-.618,0l-.125.733a1.83,1.83,0,0,1-.494-.733s-.513.39-.618,0l-.125.733a1.789,1.789,0,0,1-.5-.757,1.079,1.079,0,0,1-.372-.076c-.594-.255-.6-1.025-.426-1.618l.411-.977-.3-.671a1.339,1.339,0,0,1,.242-1.238c.128-.146.563-.291,4.694.242a4.781,4.781,0,0,1,1.5-1.329,5.616,5.616,0,0,1,2.555.034A2.271,2.271,0,0,1,45.3,1.69a6.839,6.839,0,0,1,6.832,3.46c1.611,2.691,1.526,6.486,1.36,8.3a19.319,19.319,0,0,0,10.1,2.275,21.7,21.7,0,0,0,4.97-1.044,9.91,9.91,0,0,1,6.191-.058c5.138-.041,6.767-1.7,7.255-2.3a1.181,1.181,0,0,0,.245-.94c-.459-4.152-21.54,6.237-27.211.157a2.057,2.057,0,0,1-.476-1.772A2.046,2.046,0,0,1,54,7.295a3.6,3.6,0,0,1,2.5-.093,4.393,4.393,0,0,1,2.749.5c1.568.646,2.589,2.452,3.372,3.507,4.02,1.533,22.649-7.7,24.974-1.336A4.342,4.342,0,0,1,86.884,14C85.34,16.1,82.13,17.288,77.8,17.373a1.139,1.139,0,0,0,.285.3c.392.269.741.5,1.061.715,1.854,1.235,2.16,1.842,3.541,4.306a9.987,9.987,0,0,0,5.252,3.588,3.413,3.413,0,0,1,1.593.758.515.515,0,0,1,.148.3,15.225,15.225,0,0,0,.992,3.241,11.831,11.831,0,0,1,.444,1.247c.077.306.3.964.516,1.6.233.686.761,1.805.523,2.071-.18.2-1.058.653-1.824,1.155a4.087,4.087,0,0,0-1.091.927c-.185.273-.566.244-.714.324a.145.145,0,0,0-.023.011.651.651,0,0,0-.14.173c-.013.021-.031.046-.046.068H111.04ZM74.916,12.914a39.4,39.4,0,0,1,4.734-.852,10.887,10.887,0,0,1-4.618.89l-.116-.038" fill="#fff"/><path d="M78.716,50.521a1.59,1.59,0,0,0,1.293.439A4.624,4.624,0,0,0,83.1,49.414a2.7,2.7,0,0,1,1.3-.782c.581-.207.659-.277.659-.449a12.569,12.569,0,0,0-.584-3.984.566.566,0,0,1-.1.01c-.012,0-.023,0-.034-.005-6.4,2.929-11.57,4.012-14.668,2.671a22.372,22.372,0,0,1-2.444,1.011c-.453.2-.94.4-1.467.6a16.225,16.225,0,0,0-5.6,3.6.513.513,0,0,1-.447.151,2.638,2.638,0,0,0-1.775.419,1.527,1.527,0,0,0-.417.534,2.353,2.353,0,0,0-.215.851.516.516,0,0,1-.449.473,8.716,8.716,0,0,0-.982.178H75.988a1.514,1.514,0,0,1-.207-.093.936.936,0,0,1-.437-.451,2.374,2.374,0,0,1-.11-.958,2.787,2.787,0,0,1,.338-1.149,3.564,3.564,0,0,1,2.67-1.68.513.513,0,0,1,.474.158m-4.6.721a4.463,4.463,0,0,0-.549,1.951H61.409A14.543,14.543,0,0,1,66.3,50.064l.031-.011.03-.011c.511-.2,1.013-.4,1.491-.611.692-.257,1.33-.5,1.9-.752a10.284,10.284,0,0,0,3.067.429,28.316,28.316,0,0,0,10.461-2.625c.029.252.053.509.071.763A3.819,3.819,0,0,0,81.8,48.38a3,3,0,0,1-1.849.919h-.1a2.177,2.177,0,0,0-1.907-.57,5.159,5.159,0,0,0-3.822,2.514" transform="translate(-20.909 -16.54)" fill="#fff"/><path d="M120.792,50.467a1.731,1.731,0,0,1,1.273.234c.253.128.394.2.561.161a2.07,2.07,0,0,0,1.383-.659c.2-.337.044-.857-.109-1.359-.046-.156-.092-.306-.128-.45-.006-.01-.2-.4-2.283-.787-1.339-.25-2.99-.42-4.317-.555a18.159,18.159,0,0,1-2.641-.362c-.164-.053-.325-.1-.481-.149a4.789,4.789,0,0,1-2.935-1.776l-.667-.252a.517.517,0,0,1-.183-.117,6.351,6.351,0,0,1-.5-.8.527.527,0,0,1-.091-.072,2.648,2.648,0,0,1-.182-.2c-.474.471-.777,1.278-1.236,1.611a7.345,7.345,0,0,0-2.347,2.351,5.983,5.983,0,0,0-.345,2.6.5.5,0,0,1-.092.33,4.369,4.369,0,0,1-2.848.607c-.687-.038-2.372,1.415-3.031,1.974-.031.024-.068.043-.1.066-.123.091-.248.176-.387.261a2.492,2.492,0,0,0-1.039.957.52.52,0,0,1-.32.266l-.06.018h21.547a1.49,1.49,0,0,1-.137-.24.436.436,0,0,0-.048-.094.515.515,0,0,1-.106-.155,2.106,2.106,0,0,1-.167-1.013,2.381,2.381,0,0,1,.24-.889,2.881,2.881,0,0,1,1.778-1.509m-3.273.78a4.079,4.079,0,0,0-.416,1.619H102.168a4.315,4.315,0,0,1,.578-.367c.1,0,.2.006.3.006a4.93,4.93,0,0,0,3.778-1.325,2.176,2.176,0,0,0,.392-1.405,5.237,5.237,0,0,1,.143-1.681,5.8,5.8,0,0,1,1.867-1.808,2.953,2.953,0,0,0,.376-.327,2.275,2.275,0,0,0,.258.115l.22.083a6.729,6.729,0,0,0,3.481,1.979c.151.045.3.093.459.143a17.176,17.176,0,0,0,2.978.431c.879.09,1.894.195,2.849.325a4.625,4.625,0,0,0-2.332,2.215" transform="translate(-36.555 -16.214)" fill="#fff"/><path d="M95.111,51.4a3.4,3.4,0,0,0,.364-.238A7.881,7.881,0,0,1,99.35,49.5a2.162,2.162,0,0,0,1.714-.6,6.457,6.457,0,0,1,.491-2.969,7.961,7.961,0,0,1,2.476-2.557c.263-1.061-.529-2.265-3.509-2.293-.419.2-.834.411-1.245.626h.009a3.374,3.374,0,0,1,1.126,1.355c-.071.044-1.082-.95-1.437-1.2l-.447.235a3.605,3.605,0,0,1,.888,1.2,11.515,11.515,0,0,1-1.23-1.019c-.173.091-.344.18-.514.268a3.252,3.252,0,0,1,.688,1.014,7.415,7.415,0,0,1-1.027-.841c-.1.051-.2.1-.3.147a12.147,12.147,0,0,1,1.246,4.145c0,.943-.809,1.232-1.346,1.423a1.852,1.852,0,0,0-.832.449c-.848,1.071-2.615,1.3-4.006,1.354-.75.027-1.245.421-1.727.024a2.468,2.468,0,0,0-1.7,1.111,1.736,1.736,0,0,0-.2.65,1.674,1.674,0,0,0,.013.509.683.683,0,0,0,.478.03,1.529,1.529,0,0,1,.343-.539,1.422,1.422,0,0,1,.238-.2.306.306,0,0,1,.423.093.321.321,0,0,1,.043.109.308.308,0,0,1-.137.315.945.945,0,0,0-.263.285,1.574,1.574,0,0,1,.247.166c.115.091.226.178.819-.053a1.4,1.4,0,0,1,.585-.664.307.307,0,1,1,.31.529,1.047,1.047,0,0,0-.232.2,4.357,4.357,0,0,0,2.468-.233,2.7,2.7,0,0,1,.463-.55,5.1,5.1,0,0,1,.849-.623m6.723-7.869.324-.32c.119-.12.273-.008.152.112s-.219.218-.325.323a4.991,4.991,0,0,0-1.681,3.813,1.366,1.366,0,0,0,.347.948.307.307,0,0,1-.051.431.31.31,0,0,1-.189.065.305.305,0,0,1-.241-.116,1.982,1.982,0,0,1-.479-1.328c0-1.809.946-2.743,2.144-3.927" transform="translate(-33.101 -15.375)" fill="#fff"/><path d="M101.706,38.125a7.755,7.755,0,0,0,2.33-1.312c-.084-.319-.3-.949-.507-1.559-.233-.686-.453-1.335-.541-1.682a11.458,11.458,0,0,0-.4-1.121,17.1,17.1,0,0,1-1.026-3.286,2.945,2.945,0,0,0-.976-.384,9.088,9.088,0,0,1-5.3-4.087,9.228,9.228,0,0,0-3.832-3.954c-.324-.214-.676-.451-1.068-.72a3.07,3.07,0,0,1-1.016-1.479.514.514,0,0,1,.057-.482.5.5,0,0,1,.431-.222c5.954.072,8.244-1.823,9.078-2.959a3.358,3.358,0,0,0,.61-3.125c-.793-2.423-4.855-2.42-14.837.174-9.5,2.469-9.976,1.041-9.992.949-2.486-3.95-6.029-3.643-6.029-3.643s2.18,1.191,1.865,1.549a29.668,29.668,0,0,1-2.937-1.5c.255.273,2.325,1.653,2.121,2.112-.035.078-2.717-1.72-2.717-1.72s2.819,2.819,2.6,3.135a9.869,9.869,0,0,1-1.719-1.3c.309,1.14.613,2.691,6.753,2.59a43.811,43.811,0,0,0,8.131-1.074c7.24-2.018,10.869-2.635,12.477-1.647a1.886,1.886,0,0,1,.882,1.286,2.111,2.111,0,0,1-.458,1.8c-1.078,1.322-3.807,2-8.111,2.028a.494.494,0,0,1-.209-.044,5.557,5.557,0,0,0-3.245.069.3.3,0,0,1-.168.1,29.527,29.527,0,0,0-9.914,4.109c-.059.058-.3-.07-.178-.186a18.031,18.031,0,0,1,3.069-1.954c-.078.006-.155.013-.233.015a15.889,15.889,0,0,1-7.917-1.887c-1.894-1.093-3.606,1.691-4.715,4.272a22.48,22.48,0,0,1,1.411,2.048,5.54,5.54,0,0,1-1.658-1.453c-.112.279-.216.551-.312.813a25.02,25.02,0,0,1,1.466,2.116,5.261,5.261,0,0,1-1.678-1.52c-.1.294-.192.566-.265.8.389.609,1.551,2.022,1.484,2.113a5.3,5.3,0,0,1-1.666-1.5c-.026.091-.046.167-.061.221a.3.3,0,0,1-.3.232.292.292,0,0,1-.077-.009.306.306,0,0,1-.22-.373,13.61,13.61,0,0,1,1.149-2.849c.328-.658.787-1.833,1.166-2.835.419-1.429.775-3.117.906-3.756.175-1.608.364-5.467-1.385-7.835-1.558-2.111-4.22-3.3-5.8-3.2a1.28,1.28,0,0,0-1.079.531.406.406,0,0,1-.413.208,6.017,6.017,0,0,0-2.409.094,3.993,3.993,0,0,0-1.32,1.123.415.415,0,0,1-.382.163c-.636-.085-1.319-.158-1.945-.213-.33.385-.752.324-.986.406-.171.061-1.066.87-1.132.884a.406.406,0,0,1,0,.073l-.2,1.069c0,.016-.008.031-.012.046a1.1,1.1,0,0,0-.033.657,5.92,5.92,0,0,0,1.353.066s2.048.145,2.509.145c.255,0,.269,2.034.2,2.331a.408.408,0,0,1-.437.313,16.408,16.408,0,0,0-3.613-.226c-.212.262-.049,1.33,0,1.954a4.9,4.9,0,0,1,2.584-.131,6.526,6.526,0,0,0,2.452-.133,1.388,1.388,0,0,1,.984-.539.761.761,0,0,1,.569.319,1.179,1.179,0,0,1,.236.83c-.2-.511-.578-.646-.874-.317a1.42,1.42,0,0,0-.326.274,1.643,1.643,0,0,1-.871.342c-1.367,2.857-3.226,7.19-1.812,8.479.1.089-.049.084-.139.036.024.035.045.073.071.108,0,0-3.092-2.427-3.746-2.281-.613.135-1.533-1.579-1.768-1.707a.527.527,0,0,0-.094.028.521.521,0,0,1-.344.028,12.348,12.348,0,0,1-3.006-1.3.5.5,0,0,1-.161-.162,10.1,10.1,0,0,0-5.249-3.778l-1.39-.348c-.853.466.191,1.312.932,1.638a.306.306,0,0,1-.246.561c-.568-.248-1.625-.812-1.625-.812-.374.783,1.033,1.165,1.038,1.168a.307.307,0,0,1-.137.581.32.32,0,0,1-.136-.032,8.612,8.612,0,0,1-.795-.455.344.344,0,0,0-.038.374c.086.238.435.422.519.49a2.845,2.845,0,0,0,1.531.074.321.321,0,0,1,.1-.01,3.593,3.593,0,0,1,.105-.76.309.309,0,0,1,.377-.215c.163.046.382.4.215.377-.483-.068-.3.8-.126,1.367a2.111,2.111,0,0,0,.276.157,2.738,2.738,0,0,0,1.662.1l.068-.032a.529.529,0,0,1,.14-.041,1.6,1.6,0,0,1,.1-.476,2.987,2.987,0,0,1-2.268-1.895c-.049-.163.1-.447.152-.284.4,1.339,2.588,1.646,2.606,1.648a.307.307,0,0,1,.243.173.3.3,0,0,1-.019.3,1.019,1.019,0,0,0-.163.9.306.306,0,0,1,0,.2c.164.427.474,1.1.655,1.479A25.675,25.675,0,0,1,43.921,21.9c.409,1.091,7.9,2.453,7.9,2.453-.237-.273.421-4.435.453-4.869.552-.156.393.893.348,1.326a7.343,7.343,0,0,0-.019,1.421l.6,1.964a6.081,6.081,0,0,0,2.514,2.2c.35-.309.677-.6.969-.854.486-.424,1.519-.63,2.047-1.054s1.3-1.086,1.465-1.26c.084-.173.232.6-1.253,1.794-.521.417-1.109.89-1.58,1.3-2.469,2.16-7.455,6.7-8.175,7.357a2.574,2.574,0,0,1-.621.581c-.144.118-.316.246-.514.382-.975.7-2.22,1.493-2.232,1.5-1.628.593-1.95.738-2.561.359l-.034-.021c-.008,0-.018-.006-.026-.011-.061-.039-.116-.072-.171-.1a.85.85,0,0,0-.21-.078,2.46,2.46,0,0,0-1.117,1.2,1.368,1.368,0,0,0-.079.665,1.706,1.706,0,0,0,.235.652c.016.028.019.025.023.036a.481.481,0,0,0,.219-.035,4.345,4.345,0,0,1,.089-.653l0-.018a.3.3,0,0,1,.371-.223.307.307,0,0,1,.225.242.323.323,0,0,1,0,.13,3.933,3.933,0,0,0-.078.593c.051.034.1.067.15.1A1.506,1.506,0,0,0,44.128,39a1.747,1.747,0,0,1,.159-.828c0-.012.015-.019.022-.029a.3.3,0,0,1,.386-.118.3.3,0,0,1,.125.118.3.3,0,0,1,.023.29,1.169,1.169,0,0,0-.1.564c.958.389,1.039.345,1.377.159a1.857,1.857,0,0,1,.84-.1,12.4,12.4,0,0,0,1.4-.112c.044-.243.1-.524.168-.8a2.617,2.617,0,0,1,.678-1.378,3.516,3.516,0,0,1,2.3-.651,14.079,14.079,0,0,1,2.675-1.737,21.163,21.163,0,0,1,3.367-1.511l.195-.078c.3-.242.5-.7.852-.827a20.67,20.67,0,0,0,2.819-1.184.518.518,0,0,1,.287-.065,15.2,15.2,0,0,0,2.844-2.73c.913-.993,1.6-2.08,3.705-1.43.342.106.748.566.463.566a3.154,3.154,0,0,0-.531-.128c-1.675-.168-2.029.769-2.876,1.692a13.627,13.627,0,0,1-2.184,1.99c2.854,1.054,6.643.474,12.777-2.406a.466.466,0,0,1,.148-.042.48.48,0,0,1,.079-.049l.029-.014c2.618-1.25,5.324-2.543,8.273-2.543a1.512,1.512,0,0,1,1.707,1.33,2.322,2.322,0,0,0,.591,1.124.514.514,0,0,1,.15.346c.123.157.257.324.371.448l.716.269a.509.509,0,0,1,.257.212,3.711,3.711,0,0,0,2.455,1.483c.161.048.327.1.5.152A20.832,20.832,0,0,0,93.6,31.3c4.845.5,7.2.942,7.5,2.121.033.128.073.262.115.4.2.651-.185,1.194-.624,1.924-.342.566-.389,1.208-1.444,1.411a1.827,1.827,0,0,1-1.225-.255c-.273-.139-.4-.191-.553-.153a1.862,1.862,0,0,0-1.1.96,1.467,1.467,0,0,0-.136.436,1.081,1.081,0,0,0,.054.528,1.338,1.338,0,0,1,.18.315c.006.013.011.025.016.038a1.8,1.8,0,0,0,.489.009,1.756,1.756,0,0,1,.078-.459.306.306,0,1,1,.584.181,1.359,1.359,0,0,0-.049.3,2.8,2.8,0,0,0,1.29.195,1.665,1.665,0,0,1,.094-.849.306.306,0,1,1,.571.222,1.046,1.046,0,0,0-.066.5,3.1,3.1,0,0,1,.325.032,1.611,1.611,0,0,0,.562.01.673.673,0,0,0,.124-.157,1.385,1.385,0,0,1,.546-.529c.175-.093.435-.205.731-.333l.049-.021M63.958,13.8a.306.306,0,0,1,.028.432c-.041.048-4.543,5.176-2.576,8.417.087.144-.09.038-.148-.056-2.2-3.625,2.08-8.556,2.263-8.764a.306.306,0,0,1,.432-.029M58.63,5.6a1.6,1.6,0,0,1,1.785.577c.875,1.626-.334,2.461-.879,2.461A1.591,1.591,0,0,1,58.6,8.3c1.466.587,1.909-.86,1.311-1.782a1.076,1.076,0,0,0-1.123-.329A.307.307,0,0,1,58.63,5.6M51.4,7.444c-.034-.166,1.857-.9,1.857-.9.378-.39,1.826-1.216,4.383-1.046a.306.306,0,0,1,.286.325c-.012.169-.141.035-.31.023A5.06,5.06,0,0,0,53.624,7.5c-.4-.313-2.225-.047-2.227-.058m4.052.163c.248.111.11.319.021.486-.34.62-1.169-.049-1.169-.049l.037-.08c-.024.013-.048.023-.072.037.055-.082.107-.158.16-.233l.054-.12.09-.127c.017,0,.034,0,.052-.008a1.4,1.4,0,0,1,1.644-.52s-.935-.167-1.282.5a1.346,1.346,0,0,1,.465.117M53.543,9.941c-.1-.054.377-.826.489-.846a21.476,21.476,0,0,1,2.841,1,.206.206,0,0,1-.079.054c-.069.028-2.643-.644-2.688-.65a21.438,21.438,0,0,1,2.278,1.728l-.02.007c-.082.027-1.406-.909-2.17-1.3a7.921,7.921,0,0,1,1.623,2.85l-.029,0c-.114.007-1.311-2.353-2.245-2.845m.052,8.435c-.036.14-.271.124-.23-.04a12.439,12.439,0,0,1,5.949-8.053.306.306,0,0,1,.27.55,11.589,11.589,0,0,0-5.988,7.543m2.349,5.069a.3.3,0,0,1-.069-.008c-1.168-.274-1.635-1.62-1.393-4a8.123,8.123,0,0,1,3.047-5.63c.714-.591,3.4-2.759,3.477-3.257.1-.658-.531-.758-.783-.772a.366.366,0,0,1-.1,0s.038,0,.1,0c.318-.024,1.157-.175,1.374.607.2.715-.161,1.563-1.071,2.518A24.1,24.1,0,0,1,58.312,14.9c-1.612,1.331-5.076,5.66-2.369,8.55M58.771,20.4c-.409,1.839.288,2.81.519,2.951.1.063.176.237-.025.115a3.746,3.746,0,0,1-1.783-2.925c-.635-3.683,3.7-6.518,3.817-6.655.775-.894,1.829-1.454,1.875-2.606.04-1.022-.586-1.631-.932-2.419-.22-.5-.613-1.785-.848-2.425a7.28,7.28,0,0,1,1.771,2.009,6.627,6.627,0,0,1,.295,2.931c-.056,1.405-1.1,2.1-1.746,2.959A16.142,16.142,0,0,0,58.771,20.4m.4,10.434c-.255.11-.513.221-.772.337q-.412.186-.793.354a13.731,13.731,0,0,0-4.9,3.1.307.307,0,0,1-.218.091.3.3,0,0,1-.215-.091.306.306,0,0,1,0-.432,14.377,14.377,0,0,1,5.09-3.225l.791-.354c.262-.117.523-.23.78-.342,1.912-.824,3.563-1.536,3.9-3.564.028-.167.247-.113.22.055-.394,2.357-1.887,3.215-3.878,4.073m6.807-.693.817-.664c.071,0,.716-.041,1.6-.125.472-.887,1.372-3.084,1.511-3.06a7.932,7.932,0,0,1-.688,2.978c.349-.038.716-.08,1.085-.128.464-.853,1.419-3.206,1.562-3.182a7.422,7.422,0,0,1-.777,3.073c.363-.055.718-.114,1.053-.179.421-.71,1.413-3.252,1.563-3.227a7.4,7.4,0,0,1-.763,3.052,5.693,5.693,0,0,0,.857-.275s-2.2,1.558-7.817,1.737m25.352-.17a.306.306,0,0,1-.285.194.268.268,0,0,1-.111-.022c-1.479-.58-2.1-2-2.643-3.247-.591-1.353-1.057-2.886-2.473-2.886-1.5,0-2.511.74-3.733,1.216-.491.19-1,.389-1.591.581a.307.307,0,1,1-.19-.583c.576-.186,1.076-.382,1.559-.569a9.792,9.792,0,0,1,3.912-.893c1.817,0,2.458,1.469,3.078,2.888.523,1.2,1.063,2.434,2.305,2.922a.307.307,0,0,1,.173.4m8.812-.013a.272.272,0,0,1-.049,0c-2.384-.382-3.62-1.68-5.05-3.183-.288-.3-1.025-1.248-.906-1.367s3.872,3.594,6.054,3.947a.306.306,0,0,1-.05.608m.691.66a13.552,13.552,0,0,1,2.2,6.063.307.307,0,1,1-.613,0c0-2.2-1.74-5.987-1.589-6.063" transform="translate(-12.878 -1.494)" fill="#fff"/><path d="M60.656,33.117c-.064-.136-.123-.273-.175-.413a1.483,1.483,0,0,0,.048.146c.038.09.081.178.127.267" transform="translate(-22.633 -12.239)" fill="#fff"/><path d="M125.232,74.83l-2.105-1.189L121.02,74.83l.482-2.37-1.784-1.633,2.4-.276,1.006-2.2,1,2.2,2.4.276-1.78,1.633Z" transform="translate(-44.801 -25.578)" fill="#fff" fill-rule="evenodd"/><path d="M56.09,74.83l-2.107-1.186L51.876,74.83l.48-2.37-1.78-1.633,2.4-.276,1.005-2.2,1,2.2,2.4.276-1.785,1.633Z" transform="translate(-18.927 -25.578)" fill="#fff" fill-rule="evenodd"/><path d="M91.034,73.3l-2.106-1.188L86.823,73.3l.478-2.369L85.521,69.3l2.4-.277,1.006-2.2,1,2.2,2.4.277-1.783,1.634Z" transform="translate(-32.004 -25.006)" fill="#fff" fill-rule="evenodd"/><path d="M41.717,112.163a9.6,9.6,0,0,0,4.122-1.089,8.906,8.906,0,0,1,3.663-1.144c1.449,0,1.62.974,1.641,1.186l-.1.086a2.182,2.182,0,0,1,.24-.1,1.516,1.516,0,0,0-.006-.248s0,0,0-.009a1.783,1.783,0,0,0-1.92-1.38,7.653,7.653,0,0,0-3.393,1.1,9.631,9.631,0,0,1-4.108,1.152c-1.583,0-2.487-.742-2.658-1.431a.326.326,0,0,1-.011-.084V96.9l-.673.8,0,12.944c.15.613,1.271,1.517,3.2,1.517" transform="translate(-14.414 -36.263)" fill="#fff"/><path d="M66.1,110.584a7.666,7.666,0,0,0-3.4-1.1,1.773,1.773,0,0,0-1.909,1.343,2.222,2.222,0,0,0,.028.314,2,2,0,0,1,.2.086l-.1-.092c.021-.213.193-1.188,1.642-1.188a8.919,8.919,0,0,1,3.668,1.148,11.239,11.239,0,0,0,4.185.94c1.961,0,3.038-.8,3.178-1.392V97.85l-.717-.9v13.263a.349.349,0,0,1-.01.084c-.2.8-1.725,1.163-3.064,1.163a8.151,8.151,0,0,1-3.7-.88" transform="translate(-22.748 -36.283)" fill="#fff"/><path d="M42.682,109.894a8.94,8.94,0,0,0,3.786-1.075,8.274,8.274,0,0,1,3.715-1.173,2.666,2.666,0,0,1,1.923.705c.031-5.091.051-11.732,0-12.32-.478-1.464-1.273-2.116-2.579-2.116a11.977,11.977,0,0,0-3.33.74c-.567.178-1.136.358-1.693.5a8.5,8.5,0,0,1-2.11.262,8.415,8.415,0,0,1-1.681-.165v13.778c.116.349.73.864,1.965.864m.121-11.2a11.534,11.534,0,0,0,4.169-.938l.085-.029a3.586,3.586,0,0,1,3.708.524.368.368,0,0,1-.521.52,2.9,2.9,0,0,0-2.955-.346l-.086.029a12.977,12.977,0,0,1-4.176.979c-.081,0-.165,0-.249,0a.368.368,0,0,1,.025-.735m0,2.85a11.364,11.364,0,0,0,4.156-.934l.1-.033a3.581,3.581,0,0,1,3.708.525.368.368,0,0,1-.521.52,2.894,2.894,0,0,0-2.955-.346l-.1.032a12.907,12.907,0,0,1-4.157.976c-.085,0-.17,0-.258-.006a.366.366,0,0,1-.354-.38.346.346,0,0,1,.38-.354m0,2.943a11.209,11.209,0,0,0,4.158-.933l.1-.033a3.589,3.589,0,0,1,3.708.524.368.368,0,0,1-.521.52,2.893,2.893,0,0,0-2.955-.346l-.1.033a12.912,12.912,0,0,1-4.156.976c-.086,0-.171,0-.26-.005a.369.369,0,0,1,.027-.737" transform="translate(-15.237 -35.145)" fill="#fff"/><path d="M60.762,108.223a2.68,2.68,0,0,1,1.912-.695,8.306,8.306,0,0,1,3.725,1.179,7.429,7.429,0,0,0,3.374.8,3.376,3.376,0,0,0,2.37-.605V95.1a11.186,11.186,0,0,1-1.464.1,8.926,8.926,0,0,1-2.377-.3c-.536-.148-1.073-.314-1.6-.477a13.809,13.809,0,0,0-3.657-.817c-.944,0-1.955.27-2.292,2.28l-.029,0c.046.691.046,3.132.034,12.345m9.383-3.12c-.088,0-.175,0-.258,0a12.929,12.929,0,0,1-4.16-.976l-.1-.033a2.887,2.887,0,0,0-2.954.347.368.368,0,0,1-.521-.521,3.583,3.583,0,0,1,3.706-.524l.094.033a11.325,11.325,0,0,0,4.161.933.369.369,0,0,1,.026.737m0-2.946c-.087,0-.173.006-.257.006a12.936,12.936,0,0,1-4.158-.975l-.1-.032a2.882,2.882,0,0,0-2.954.346.368.368,0,0,1-.52-.52,3.58,3.58,0,0,1,3.705-.525l.1.032a11.345,11.345,0,0,0,4.158.934.349.349,0,0,1,.38.354.364.364,0,0,1-.354.38M62.159,98.13a3.576,3.576,0,0,1,3.705-.524l.084.028a11.441,11.441,0,0,0,4.171.939.38.38,0,0,1,.38.354.366.366,0,0,1-.355.38c-.084,0-.167.005-.249.005a12.976,12.976,0,0,1-4.178-.981l-.085-.028a2.894,2.894,0,0,0-2.951.344.368.368,0,0,1-.523-.518" transform="translate(-22.726 -35.028)" fill="#fff"/><path d="M59.5,120.411a.3.3,0,0,1-.082.019h-.528a.3.3,0,0,1-.111-.026,1.309,1.309,0,0,0-.761.41l0,.013-.083.269,2.373-.016-.074-.258a1.3,1.3,0,0,0-.73-.411" transform="translate(-21.68 -45.058)" fill="#fff"/><path d="M50.25,112.021a.813.813,0,0,0-.18-.413c-.586-.7-2.3-.425-4.962.812a12,12,0,0,1-4.288.949c-2.253,0-3.238-1.061-3.361-1.553V98.937l-.7.839v12.4a2.774,2.774,0,0,0,1.293,1.084c1.066.533,3.387,1.2,6.953-.34,3.734-1.607,4.628-1.374,4.991-.991a.672.672,0,0,1,.1.158c.049-.029.108-.043.16-.067" transform="translate(-13.755 -37.024)" fill="#fff"/><path d="M70.77,113.391a12.6,12.6,0,0,1-4.263-.877,10.431,10.431,0,0,0-3.895-1.195,1.332,1.332,0,0,0-1.071.38.826.826,0,0,0-.183.418c.052.026.11.04.158.069a.636.636,0,0,1,.1-.166c.362-.382,1.257-.615,4.989.992,3.557,1.534,5.877.874,6.944.346a2.807,2.807,0,0,0,1.306-1.091L74.851,100l-.652-.815,0,12.7c-.12.489-1.114,1.5-3.431,1.5" transform="translate(-22.961 -37.116)" fill="#fff"/><path d="M104.184,112.163a9.607,9.607,0,0,0,4.123-1.089,8.9,8.9,0,0,1,3.663-1.144c1.449,0,1.621.974,1.641,1.186l-.094.086a2.172,2.172,0,0,1,.24-.1,1.587,1.587,0,0,0-.006-.248s0,0,0-.009a1.784,1.784,0,0,0-1.921-1.38,7.649,7.649,0,0,0-3.393,1.1,9.633,9.633,0,0,1-4.107,1.152c-1.583,0-2.488-.742-2.659-1.431a.355.355,0,0,1-.011-.084V96.9l-.674.8,0,12.944c.15.613,1.27,1.517,3.2,1.517" transform="translate(-37.79 -36.263)" fill="#fff"/><path d="M105.15,109.894a8.944,8.944,0,0,0,3.785-1.075,8.271,8.271,0,0,1,3.715-1.173,2.668,2.668,0,0,1,1.923.705c.03-5.091.051-11.732,0-12.32-.477-1.464-1.272-2.116-2.577-2.116a11.962,11.962,0,0,0-3.33.74c-.568.178-1.137.358-1.694.5a8.633,8.633,0,0,1-3.792.1v13.778c.117.349.731.864,1.967.864m.121-11.2a11.531,11.531,0,0,0,4.168-.938l.086-.029a3.588,3.588,0,0,1,3.708.524.368.368,0,0,1-.521.52,2.9,2.9,0,0,0-2.955-.346l-.087.029a12.971,12.971,0,0,1-4.176.979c-.081,0-.165,0-.249,0a.368.368,0,1,1,.026-.735m0,2.85a11.37,11.37,0,0,0,4.156-.934l.1-.033a3.583,3.583,0,0,1,3.708.525.368.368,0,0,1-.521.52,2.9,2.9,0,0,0-2.956-.346l-.1.032a12.9,12.9,0,0,1-4.157.976c-.085,0-.168,0-.257-.006a.365.365,0,0,1-.354-.38.347.347,0,0,1,.38-.354m0,2.943a11.2,11.2,0,0,0,4.158-.933l.1-.033a3.591,3.591,0,0,1,3.708.524.368.368,0,0,1-.521.52,2.894,2.894,0,0,0-2.955-.346l-.1.033a12.911,12.911,0,0,1-4.157.976c-.086,0-.171,0-.26-.005a.367.367,0,0,1-.354-.382.371.371,0,0,1,.38-.355" transform="translate(-38.613 -35.145)" fill="#fff"/><path d="M128.563,110.584a7.662,7.662,0,0,0-3.4-1.1,1.774,1.774,0,0,0-1.91,1.343,2.221,2.221,0,0,0,.028.314,1.869,1.869,0,0,1,.2.086l-.1-.092c.02-.213.193-1.188,1.643-1.188a8.92,8.92,0,0,1,3.667,1.148,11.239,11.239,0,0,0,4.185.94c1.962,0,3.038-.8,3.179-1.392V97.85l-.717-.9v13.263a.383.383,0,0,1-.01.084c-.2.8-1.725,1.163-3.064,1.163a8.156,8.156,0,0,1-3.7-.88" transform="translate(-46.125 -36.283)" fill="#fff"/><path d="M123.231,108.223a2.676,2.676,0,0,1,1.912-.695,8.308,8.308,0,0,1,3.725,1.179,7.432,7.432,0,0,0,3.374.8,3.379,3.379,0,0,0,2.371-.605V95.1a11.188,11.188,0,0,1-1.465.1,8.922,8.922,0,0,1-2.377-.3c-.536-.148-1.072-.314-1.6-.477a13.809,13.809,0,0,0-3.657-.817c-.945,0-1.955.27-2.292,2.28l-.029,0c.046.691.045,3.132.036,12.345m9.382-3.12c-.088,0-.175,0-.259,0a12.93,12.93,0,0,1-4.159-.976l-.1-.033a2.887,2.887,0,0,0-2.954.347.368.368,0,0,1-.52-.521,3.581,3.581,0,0,1,3.705-.524l.094.033a11.325,11.325,0,0,0,4.161.933.369.369,0,0,1,.026.737m0-2.946c-.088,0-.173.006-.257.006a12.929,12.929,0,0,1-4.158-.975l-.1-.032a2.881,2.881,0,0,0-2.954.346.368.368,0,0,1-.52-.52,3.579,3.579,0,0,1,3.7-.525l.1.032a11.347,11.347,0,0,0,4.158.934.35.35,0,0,1,.38.354.364.364,0,0,1-.354.38m-7.987-4.028a3.576,3.576,0,0,1,3.705-.524l.084.028a11.443,11.443,0,0,0,4.171.939.381.381,0,0,1,.379.354.366.366,0,0,1-.355.38c-.084,0-.166.005-.249.005a12.982,12.982,0,0,1-4.178-.981L128.1,98.3a2.893,2.893,0,0,0-2.951.344.368.368,0,1,1-.523-.518" transform="translate(-46.102 -35.028)" fill="#fff"/><path d="M133.238,113.391a12.608,12.608,0,0,1-4.264-.877,10.425,10.425,0,0,0-3.894-1.195,1.33,1.33,0,0,0-1.071.38.817.817,0,0,0-.183.418c.052.026.111.04.158.069a.651.651,0,0,1,.1-.166c.362-.382,1.258-.615,4.989.992,3.558,1.534,5.878.874,6.945.346a2.807,2.807,0,0,0,1.305-1.091L137.318,100l-.653-.815,0,12.7c-.118.489-1.114,1.5-3.431,1.5" transform="translate(-46.338 -37.116)" fill="#fff"/><path d="M112.718,112.021a.825.825,0,0,0-.181-.413c-.586-.7-2.3-.425-4.962.812a12.005,12.005,0,0,1-4.288.949c-2.253,0-3.238-1.061-3.361-1.553V98.937l-.7.839v12.4a2.785,2.785,0,0,0,1.293,1.084c1.067.533,3.389,1.2,6.953-.34,3.735-1.607,4.628-1.374,4.991-.991a.63.63,0,0,1,.1.158,1.735,1.735,0,0,1,.161-.067" transform="translate(-37.131 -37.024)" fill="#fff"/><path d="M121.971,120.411a.328.328,0,0,1-.083.019h-.528a.3.3,0,0,1-.112-.026,1.305,1.305,0,0,0-.76.41.06.06,0,0,0,0,.013l-.083.269,2.372-.016-.073-.258a1.3,1.3,0,0,0-.729-.411" transform="translate(-45.057 -45.058)" fill="#fff"/><path d="M66.6,82.6a393.7,393.7,0,0,0-42.177,2.684c.018.439.034.877.034,1.32,0,15.114.079,39.918.216,55.819.58,13.054,7.856,18.353,18.593,21.456,8.846,2.556,17.415,4.526,23.239,9.957,5.824-5.431,14.4-7.4,23.247-9.957,10.735-3.1,18.012-8.4,18.59-21.457.137-15.9.218-40.7.218-55.818,0-.432.018-.861.034-1.291A381.87,381.87,0,0,0,66.6,82.6m13.267,66.729-1.886,2.492-5.5-6,.118-.156ZM73,138.05l6.519-4.877,1.393,2.8-7.826,2.253Zm.634,5.373.054-.188,8.105.791-.859,3Zm.212-2.651-.018-.195,7.842-2.192.287,3.115Zm7.941-5.235-1.39-2.8,7.824-2.252.088.175Zm-3.19-5.063-2.308-2.106,6.48-4.931.145.132Zm-.658.722-6.481,4.928-.144-.13,4.316-6.9Zm-4.146-4.29-2.914-1.13,4.261-6.939.182.07Zm-.353.911-4.262,6.939-.181-.07,1.528-8ZM66.365,117.3h.2l1.466,8.011H64.9Zm1.661,8.987L66.56,134.3h-.2L64.9,126.291Zm-17.85-2.52.148-.131,6.463,4.954-2.318,2.1Zm9.975,14.6-.087.175L52.25,136.27l1.4-2.794Zm-7.374-5.34-1.4,2.794-6.5-4.9.088-.175Zm-1.161,5.685,7.835,2.22-.019.194-8.111.7Zm8.11,4.865.053.188-7.313,3.581-.847-3.009Zm1.21,2.367.118.155-5.521,5.984-1.879-2.5Zm-5.812-14.534,2.317-2.1,4.29,6.919-.144.131Zm2.585-12.4.183-.069,4.238,6.953-2.921,1.12Zm1.849,8.917,2.919-1.121,1.5,8-.181.069ZM30.674,107.817l-.187-.2V91.791l2.434-.151,1.032-1.227a.364.364,0,0,1,.107-.128.351.351,0,0,1,.314-.052,7.045,7.045,0,0,0,1.927.247,7.875,7.875,0,0,0,1.936-.24c.545-.14,1.1-.315,1.655-.491a12.618,12.618,0,0,1,3.542-.772,3.048,3.048,0,0,1,2.928,1.834l.186-.011.044,0,.1.007a2.674,2.674,0,0,1,2.773-2.028,14.255,14.255,0,0,1,3.865.847c.519.161,1.048.326,1.578.472a8.269,8.269,0,0,0,2.19.274,9.826,9.826,0,0,0,1.745-.15.305.305,0,0,1,.343.135l0,0L60.2,91.635l2.541.156v16.282l-.312.21a9.889,9.889,0,0,1-5.613,1.665,15.983,15.983,0,0,1-7.354-2.044.941.941,0,0,1-.068.076,1.285,1.285,0,0,1-.93.329H44.762a1.284,1.284,0,0,1-.929-.329,1.184,1.184,0,0,1-.094-.107,18.328,18.328,0,0,1-7.663,2.109,7.036,7.036,0,0,1-5.4-2.164m11.837,31.7.021-.2,8.112-.7-.3,3.113Zm.855,8.673,7.312-3.583.848,3.01-8.106.763Zm3.983,7.968,5.523-5.984,1.877,2.5-7.282,3.642Zm6.76,6.094-.165-.1,2.986-7.575,2.655,1.652Zm3.337-8.509,5.476-6.027.166.1L60.1,155.4Zm5,11.643-.191-.036.046-8.143,3.071.581Zm3.108-8.559-3.071-.579,2.927-7.6.191.036Zm-2.22-15.3a3.321,3.321,0,1,1,3.32,3.321,3.321,3.321,0,0,1-3.32-3.321m4.734,7.089.191-.035,2.9,7.609-3.074.571Zm3.094,16.714-2.9-7.609,3.074-.569.017,8.143Zm-.628-17.7.167-.1,5.456,6.045L73.5,155.219ZM79.464,162.1l-5.455-6.048,2.662-1.641,2.959,7.586Zm6.569-6.019-7.272-3.667,1.887-2.492,5.5,6Zm3.945-7.986-8.1-.792.859-3,7.3,3.608Zm-7.045-6.681-.287-3.114,8.111.728.016.2Zm18.9-33.338-.312.21a9.888,9.888,0,0,1-5.613,1.665,15.98,15.98,0,0,1-7.354-2.044c-.021.026-.043.051-.068.076a1.287,1.287,0,0,1-.93.329H83.854a1.287,1.287,0,0,1-.931-.329,1.256,1.256,0,0,1-.092-.107,18.332,18.332,0,0,1-7.664,2.109,7.036,7.036,0,0,1-5.4-2.164l-.188-.2V91.791l2.434-.151,1.033-1.227a.35.35,0,0,1,.421-.18,7.05,7.05,0,0,0,1.927.247,7.874,7.874,0,0,0,1.936-.24c.546-.14,1.1-.315,1.655-.491a12.621,12.621,0,0,1,3.543-.772,3.046,3.046,0,0,1,2.927,1.834l.188-.011.043,0,.1.007a2.674,2.674,0,0,1,2.773-2.028,14.259,14.259,0,0,1,3.865.847c.519.161,1.048.326,1.578.472a8.264,8.264,0,0,0,2.189.274,9.847,9.847,0,0,0,1.746-.15.341.341,0,0,1,.293.073.344.344,0,0,1,.05.062l0,0L99.3,91.635l2.541.156Z" transform="translate(-9.14 -30.91)" fill="#fff"/></g></svg>