<svg xmlns="http://www.w3.org/2000/svg" width="194.063" height="42" viewBox="0 0 194.063 42"><g transform="translate(0 -0.04)"><path d="M64.64,105.55h17.3v4.275H75.837V142.3h-5.09V109.825H64.64Z" transform="translate(-64.64 -104.643)" fill="#fff"/><path d="M151.94,113.81c0-5.14,1.681-9.67,8.6-9.67,5.04,0,7.374,2.544,7.374,6.667v3.665h-4.778v-2.544c0-2.342-.813-3.819-2.952-3.819-2.646,0-3.156,1.885-3.156,6.313v18.016c0,4.327,1.375,5.09,3,5.09,1.883,0,3.1-1.323,3.1-4.377v-2.546h4.784v4.084c0,3.867-1.577,6.819-7.482,6.819-6.413,0-8.5-3.409-8.5-9.109Z" transform="translate(-133.007 -103.538)" fill="#fff"/><path d="M241.82,105.55h7.025l6.005,30.538h.1V105.55h4.784V142.3h-7.328l-5.994-31.356h-.1V142.3H241.82Z" transform="translate(-203.394 -104.643)" fill="#fff"/><path d="M339.667,131.558h4.784v3.613c0,1.477.2,3.47,1.932,3.47,1.885,0,2.089-1.781,2.089-3.665V105.55h5.088v29.976c0,4.481-2.136,7.074-7.176,7.074-4.223,0-6.723-1.271-6.723-6.311Z" transform="translate(-280.015 -104.643)" fill="#fff"/><path d="M437.5,102.18h8.165V104.2h-2.882v15.322h-2.4V104.2H437.5Z" transform="translate(-356.636 -102.003)" fill="#fff"/><path d="M484.33,102.18h2.4v7.445h3.195V102.18h2.4v17.339h-2.4v-7.877h-3.195v7.877h-2.4Z" transform="translate(-393.31 -102.003)" fill="#fff"/><path d="M529.4,102.18h6.532V104.2h-4.121v5.422H535.7v2.017h-3.9v5.856h4.121v2.017H529.4Z" transform="translate(-428.605 -102.003)" fill="#fff"/><path d="M583.642,106.1c0-2.425.792-4.554,4.058-4.554,2.386,0,3.483,1.2,3.483,3.147v1.735h-2.26v-1.2c0-1.106-.384-1.8-1.395-1.8-1.247,0-1.488.887-1.488,2.978v8.5c0,2.041.651,2.4,1.416,2.4.889,0,1.466-.625,1.466-2.065v-1.2h2.258v1.917c0,1.826-.746,3.218-3.531,3.218-3.025,0-4.01-1.609-4.01-4.3Z" transform="translate(-471.082 -101.51)" fill="#fff"/><path d="M625.72,106.1c0-2.425.792-4.554,4.058-4.554,3.1,0,4.084,1.609,4.084,4.3v8.766c0,2.427-.794,4.554-4.084,4.554-3.073,0-4.058-1.609-4.058-4.3Zm2.4,8.909c0,1.49.672,2.282,1.657,2.282s1.681-.792,1.681-2.282V105.9c0-1.7-.577-2.5-1.681-2.5s-1.657.792-1.657,2.5Z" transform="translate(-504.036 -101.51)" fill="#fff"/><path d="M671.11,102.18h2.4V117.5h4.036v2.017H671.11Z" transform="translate(-539.582 -102.003)" fill="#fff"/><path d="M706,102.18h2.4V117.5h4.034v2.017H706Z" transform="translate(-566.905 -102.003)" fill="#fff"/><path d="M740.86,102.18H747.4V104.2h-4.136v5.422h3.891v2.017h-3.891v5.856H747.4v2.017H740.86Z" transform="translate(-594.205 -102.003)" fill="#fff"/><path d="M783.546,106.274v-.889c0-1.225-.6-1.969-1.538-1.969-1.1,0-1.657,1.008-1.657,2.858v8.74c0,1.395.672,2.282,1.657,2.282a7.063,7.063,0,0,0,1.538-.167v-5.092H781.96v-2.017h3.986v8.718a20.1,20.1,0,0,1-3.962.434c-3.049,0-4.034-1.609-4.034-4.3V106.1c0-3.253.984-4.554,4.082-4.554,2.57,0,3.915.937,3.915,3.147v1.585Z" transform="translate(-623.251 -101.51)" fill="#fff"/><path d="M823,102.18h6.532V104.2h-4.121v5.422h3.878v2.017H825.4v5.856h4.121v2.017H823Z" transform="translate(-658.531 -102.003)" fill="#fff"/><path d="M878.14,106.1c0-2.425.794-4.554,4.06-4.554,3.1,0,4.082,1.609,4.082,4.3v8.766c0,2.427-.792,4.554-4.082,4.554-3.075,0-4.06-1.609-4.06-4.3Zm2.4,8.909c0,1.49.672,2.282,1.657,2.282s1.681-.792,1.681-2.282V105.9c0-1.7-.577-2.5-1.681-2.5s-1.657.792-1.657,2.5Z" transform="translate(-701.712 -101.51)" fill="#fff"/><path d="M925.75,102.18h6.532V104.2h-4.121v5.422h3.891v2.017h-3.9v7.877h-2.4Z" transform="translate(-738.997 -102.003)" fill="#fff"/><path d="M450.712,222.125c0,.629,0,3.119.063,3.663a.377.377,0,0,1-.4.23c-.252-.356-.867-1.084-2.681-3.16l-4.854-5.526c-.566-.651-1.989-2.364-2.429-2.819h-.041a5.287,5.287,0,0,0-.1,1.36v4.554c0,.985.02,3.7.375,4.337.126.23.544.356,1.069.4l.651.063a.382.382,0,0,1-.043.523c-.941-.041-1.674-.063-2.449-.063-.878,0-1.444.022-2.169.063a.386.386,0,0,1-.043-.523l.566-.063c.481-.063.815-.189.922-.419a20.213,20.213,0,0,0,.271-4.311v-6.051a1.921,1.921,0,0,0-.46-1.505,2.306,2.306,0,0,0-1.3-.5l-.356-.041a.366.366,0,0,1,.043-.525c.878.063,1.987.063,2.364.063a6.525,6.525,0,0,0,.963-.063c.419,1.069,2.889,3.83,3.578,4.6l2.023,2.282c1.444,1.611,2.47,2.785,3.455,3.789h.041a2.122,2.122,0,0,0,.082-.878v-4.481c0-.982-.02-3.7-.419-4.338-.126-.189-.46-.314-1.3-.419l-.356-.041c-.147-.126-.126-.462.041-.525.963.043,1.674.063,2.47.063.9,0,1.444-.02,2.156-.063a.371.371,0,0,1,.041.525l-.293.041c-.67.1-1.084.273-1.171.434-.356.753-.314,3.349-.314,4.309Z" transform="translate(-356.41 -187.85)" fill="#fff"/><path d="M511.842,215.033c0-2.169-.043-2.492-1.277-2.637l-.334-.041c-.126-.085-.085-.462.041-.525.9.043,1.611.063,2.47.063h3.934a27.807,27.807,0,0,0,2.819-.063,23.283,23.283,0,0,1,.334,2.785.41.41,0,0,1-.523.041c-.315-.982-.5-1.715-1.59-1.987a9.857,9.857,0,0,0-2.032-.128H514.18c-.629,0-.629.043-.629.839v4.186c0,.586.063.586.69.586h1.232a7.824,7.824,0,0,0,1.778-.126c.26-.085.4-.217.5-.733l.167-.867a.417.417,0,0,1,.544.022c0,.5-.082,1.319-.082,2.115,0,.753.082,1.548.082,2.008-.082.147-.434.147-.544.022l-.186-.818a.9.9,0,0,0-.651-.794,6.95,6.95,0,0,0-1.611-.1h-1.214c-.627,0-.69.02-.69.564v2.952c0,1.108.063,1.82.4,2.169.252.252.692.481,2.533.481a6.136,6.136,0,0,0,2.678-.312,5.307,5.307,0,0,0,1.486-2.03.384.384,0,0,1,.525.145,18.145,18.145,0,0,1-.943,2.923c-1.883-.041-3.745-.063-5.608-.063h-1.883c-.9,0-1.611.022-2.848.063a.406.406,0,0,1-.041-.523l.69-.063c1.2-.1,1.3-.419,1.3-2.616Z" transform="translate(-413.246 -187.873)" fill="#fff"/><path d="M555.7,212.3a.343.343,0,0,1,.063-.5c.564.043,1.507.063,2.156.063.585,0,1.653-.02,2.386-.063.189.063.167.358.041.5l-.481.041c-.434.043-.69.167-.69.356a16.5,16.5,0,0,0,1.084,2.806c1.173,2.616,2.407,5.231,3.622,7.807.5-1.048,1.067-2.219,1.611-3.392a3.762,3.762,0,0,0,.334-.867,1.835,1.835,0,0,0-.167-.544c-.733-1.674-1.518-3.349-2.3-5.023-.314-.651-.629-1.084-1.34-1.152l-.5-.041a.325.325,0,0,1,.043-.5c.607.043,1.4.063,2.238.063,1.047,0,1.822-.02,2.3-.063.145.063.167.336.041.5l-.544.041c-.815.063-.837.217-.434,1.152.434,1.026,1.024,2.344,1.611,3.641.4-.815.774-1.611,1.234-2.741.753-1.778.651-2.008-.022-2.052l-.627-.041c-.148-.217-.1-.434.041-.5.566.043,1.193.063,1.967.063.692,0,1.529-.02,2.01-.063.145.063.167.336.041.5l-.607.041c-.878.063-1.256,1.006-1.715,1.863-.434.774-1.319,2.6-1.633,3.329a1.7,1.7,0,0,0-.189.5,1.617,1.617,0,0,0,.147.5c.711,1.611,1.444,3.182,2.134,4.771.651-1.466,1.277-2.93,1.885-4.416.419-1.006,1.518-3.789,1.674-4.164a12.793,12.793,0,0,0,.627-1.906c0-.293-.252-.46-.69-.481l-.607-.041c-.169-.189-.147-.419.02-.5.8.043,1.362.063,2.01.063.794,0,1.4-.02,1.952-.063.167.063.189.336.044.5l-.4.041c-1.045.1-1.234.733-2.49,3.643l-1.529,3.535c-.92,2.136-1.757,4.186-2.616,6.426a.449.449,0,0,1-.252.063.681.681,0,0,1-.293-.063c-.67-1.863-1.882-4.478-2.531-5.945a63.068,63.068,0,0,0-2.618,5.945.447.447,0,0,1-.249.063.848.848,0,0,1-.314-.063c-.356-.878-1.173-2.763-1.444-3.37-1.34-2.908-2.637-5.817-4-8.727-.4-.868-.651-1.423-1.518-1.507Z" transform="translate(-449.139 -187.842)" fill="#fff"/><path d="M669.387,215.074c0-2.323-.217-2.574-1.444-2.678l-.523-.041c-.126-.085-.085-.462.041-.525,1.215.043,1.926.063,2.8.063.837,0,1.549-.02,2.386-.063a.413.413,0,0,1,.041.525l-.312.041c-1.236.167-1.277.46-1.277,2.678v7.764a11.668,11.668,0,0,1-.481,4.062,4.539,4.539,0,0,1-4.121,3.012c-.252,0-.9-.022-.9-.434,0-.358.314-.965.753-.965a2.635,2.635,0,0,1,.774.126,3.216,3.216,0,0,0,.88.147.9.9,0,0,0,.837-.544c.481-.985.544-4.121.544-5.253Z" transform="translate(-535.267 -187.873)" fill="#fff"/><path d="M701.592,215.033c0-2.169-.043-2.492-1.277-2.637l-.334-.041c-.126-.085-.085-.462.041-.525.9.043,1.611.063,2.47.063h3.934a27.833,27.833,0,0,0,2.819-.063,24.213,24.213,0,0,1,.334,2.785.41.41,0,0,1-.523.041c-.315-.982-.5-1.715-1.592-1.987a9.82,9.82,0,0,0-2.03-.128h-1.518c-.627,0-.627.043-.627.839v4.186c0,.586.063.586.69.586h1.215a7.693,7.693,0,0,0,1.778-.126c.249-.085.4-.217.5-.733l.167-.867a.419.419,0,0,1,.544.022c0,.5-.085,1.319-.085,2.115,0,.753.085,1.548.085,2.008a.412.412,0,0,1-.544.022l-.189-.818a.891.891,0,0,0-.651-.794,6.96,6.96,0,0,0-1.611-.1h-1.215c-.627,0-.69.02-.69.564v2.952c0,1.108.063,1.82.4,2.169.252.252.692.481,2.533.481a6.136,6.136,0,0,0,2.678-.312,5.329,5.329,0,0,0,1.486-2.03.384.384,0,0,1,.525.145,18.139,18.139,0,0,1-.944,2.908c-1.882-.041-3.745-.063-5.608-.063h-1.883c-.9,0-1.611.022-2.848.063a.406.406,0,0,1-.041-.523l.69-.063c1.193-.1,1.3-.419,1.3-2.616Z" transform="translate(-561.821 -187.873)" fill="#fff"/><path d="M754.878,215.053c0-1.987-.063-2.342-.919-2.449l-.67-.082a.347.347,0,0,1,.022-.523c1.171-.106,2.616-.169,4.667-.169a7.4,7.4,0,0,1,3.494.629,3.116,3.116,0,0,1,1.735,2.93,3.876,3.876,0,0,1-2.615,3.5c-.1.124,0,.334.1.5,1.674,2.7,2.785,4.374,4.207,5.567a2.494,2.494,0,0,0,1.444.586.176.176,0,0,1,.02.293,3.254,3.254,0,0,1-.92.1c-1.781,0-2.848-.523-4.338-2.635-.544-.774-1.4-2.219-2.052-3.16a1.491,1.491,0,0,0-1.486-.67c-.941,0-.982.02-.982.46v2.637c0,2.2.041,2.449,1.256,2.616l.434.063a.408.408,0,0,1-.041.523c-.941-.041-1.653-.063-2.49-.063-.88,0-1.633.022-2.618.063a.4.4,0,0,1-.041-.523l.523-.063c1.214-.145,1.256-.419,1.256-2.616Zm1.718,3a1.645,1.645,0,0,0,.063.69c.063.085.375.1,1.444.1a3.489,3.489,0,0,0,2.154-.544,3,3,0,0,0,1.047-2.6,3.084,3.084,0,0,0-3.349-3.225c-1.3,0-1.36.085-1.36.67Z" transform="translate(-603.721 -187.873)" fill="#fff"/><path d="M815.489,225.047a6.441,6.441,0,0,1-3.253-.774,9.731,9.731,0,0,1-.566-2.93c.106-.147.419-.189.5-.063a3.808,3.808,0,0,0,3.6,3.119,2.378,2.378,0,0,0,2.615-2.407,3.14,3.14,0,0,0-1.716-2.93l-1.989-1.3a4.465,4.465,0,0,1-2.26-3.6c0-1.989,1.548-3.6,4.27-3.6a8.146,8.146,0,0,1,1.952.271,2.761,2.761,0,0,0,.733.126,9.238,9.238,0,0,1,.375,2.555c-.082.124-.418.189-.523.061a2.74,2.74,0,0,0-2.845-2.364,2.193,2.193,0,0,0-2.492,2.323,3.288,3.288,0,0,0,1.781,2.574l1.674,1.048a4.716,4.716,0,0,1,2.615,4.019C819.948,223.477,818.211,225.047,815.489,225.047Z" transform="translate(-649.658 -186.878)" fill="#fff"/><path d="M855.882,215.033c0-2.169-.041-2.492-1.277-2.637l-.334-.041c-.126-.085-.085-.462.041-.525.9.043,1.611.063,2.47.063h3.934a27.811,27.811,0,0,0,2.819-.063,23.3,23.3,0,0,1,.334,2.785.41.41,0,0,1-.523.041c-.314-.982-.5-1.715-1.59-1.987a9.857,9.857,0,0,0-2.032-.128h-1.505c-.629,0-.629.043-.629.839v4.186c0,.586.063.586.692.586h1.212a7.717,7.717,0,0,0,1.781-.126c.252-.085.4-.217.5-.733l.167-.867a.417.417,0,0,1,.544.022c0,.5-.082,1.319-.082,2.115,0,.753.082,1.548.082,2.008-.082.147-.434.147-.544.022l-.186-.818a.9.9,0,0,0-.651-.794,6.95,6.95,0,0,0-1.611-.1h-1.212c-.629,0-.692.02-.692.564v2.952c0,1.108.063,1.82.4,2.169.249.252.69.481,2.531.481a6.136,6.136,0,0,0,2.678-.312,5.329,5.329,0,0,0,1.488-2.03.382.382,0,0,1,.523.145,18.361,18.361,0,0,1-.941,2.908c-1.885-.041-3.748-.063-5.611-.063h-1.883c-.9,0-1.611.022-2.848.063a.408.408,0,0,1-.041-.523l.692-.063c1.193-.1,1.3-.419,1.3-2.616Z" transform="translate(-682.659 -187.873)" fill="#fff"/><path d="M906.939,222.5c0,2.238.126,2.574,1.256,2.657l.8.063a.406.406,0,0,1-.043.523c-1.3-.041-2.008-.063-2.845-.063-.868,0-1.633.022-2.741.063a.405.405,0,0,1-.041-.523l.651-.063c1.214-.126,1.256-.419,1.256-2.657v-1.067a4.239,4.239,0,0,0-.67-2.6l-2.47-4.815c-.711-1.379-1.026-1.486-1.653-1.59l-.586-.1a.386.386,0,0,1,.041-.525c.67.043,1.423.063,2.427.063.963,0,1.718-.02,2.24-.063.189.063.189.4.063.525l-.273.041c-.731.1-.868.217-.868.377a9.992,9.992,0,0,0,.651,1.611c.774,1.548,1.549,3.2,2.366,4.645.651-1.11,1.338-2.323,1.967-3.537a18.881,18.881,0,0,0,1.36-2.763c0-.126-.377-.271-.878-.334l-.377-.041a.349.349,0,0,1,.041-.525c.755.043,1.362.063,2.01.063s1.234-.02,1.952-.063a.353.353,0,0,1,.043.525l-.588.1c-1.084.189-1.715,1.518-2.761,3.307l-1.319,2.282a4.817,4.817,0,0,0-.985,3.39Z" transform="translate(-718.646 -187.849)" fill="#fff"/></g></svg>