<svg id="building" xmlns="http://www.w3.org/2000/svg" width="25.576" height="25.1" viewBox="0 0 25.576 25.1">
  <path id="campus-building-micro-icon" d="M338.427,643.077h-1.144v-6.667a1.017,1.017,0,0,0,.8-1v-2.239a.957.957,0,0,0,.945-1V629.3a.983.983,0,0,0-.6-.9l-11.493-4.876a1.1,1.1,0,0,0-.8,0L314.646,628.4a.983.983,0,0,0-.6.9v2.886a1,1,0,0,0,1,1h.1v2.239a1.012,1.012,0,0,0,.846,1v6.667H314.8a1,1,0,0,0-1,1v3.483a1,1,0,0,0,1,1h23.583a1,1,0,0,0,1-1v-3.483A.927.927,0,0,0,338.427,643.077Zm-5.97,0v-6.667h2.836v6.667Zm-6.816-6.667v6.667h-2.836v-6.667Zm1.99,0h2.836v6.667h-2.836Zm-11.543-6.468,10.5-4.478,10.5,4.478v1.244h-21Zm20,3.234v1.244H317.133v-1.244Zm-18.11,3.234h2.836v6.667h-2.836Zm19.453,10.149H315.84v-1.493h21.592Z" transform="translate(-313.8 -623.45)" fill="#010101"/>
</svg>
