<svg id="close-micro-icon" xmlns="http://www.w3.org/2000/svg" width="30" height="30" viewBox="0 0 30 30">
  <path id="Path_1794" data-name="Path 1794" d="M622.588,296.235a1.079,1.079,0,0,0-1.563,0l-4.913,4.913-4.913-4.913a1.105,1.105,0,1,0-1.563,1.563l4.913,4.913-4.913,4.913a1.079,1.079,0,0,0,0,1.563,1.079,1.079,0,0,0,1.563,0l4.913-4.913,4.913,4.913a1.079,1.079,0,0,0,1.563,0,1.079,1.079,0,0,0,0-1.563l-4.913-4.913,4.913-4.913A1.079,1.079,0,0,0,622.588,296.235Z" transform="translate(-601.111 -287.711)" fill="#293f6f"/>
  <path id="Path_1795" data-name="Path 1795" d="M611.2,282.8a15,15,0,1,0,15,15A15.017,15.017,0,0,0,611.2,282.8Zm0,27.569a12.628,12.628,0,1,1,12.629-12.628A12.639,12.639,0,0,1,611.2,310.369Z" transform="translate(-596.2 -282.8)" fill="#293f6f"/>
</svg>
