<svg id="ribbon" xmlns="http://www.w3.org/2000/svg" width="25.562" height="24.983" viewBox="0 0 25.562 24.983">
  <path id="Path_1779" data-name="Path 1779" d="M232.4,642.947a.732.732,0,0,0,.443.1.947.947,0,0,0,.591-.2,1.027,1.027,0,0,0,.394-.985l-.443-2.562,1.873-1.823a1.087,1.087,0,0,0,.246-1.035,1.023,1.023,0,0,0-.788-.69l-2.562-.394-1.133-2.316a1,1,0,0,0-1.774,0l-1.133,2.316-2.562.394a.89.89,0,0,0-.788.69,1.152,1.152,0,0,0,.246,1.035l1.873,1.823-.443,2.562a1.071,1.071,0,0,0,.394.985,1.1,1.1,0,0,0,1.035.1l2.316-1.232Zm-3.745-2.661.2-1.084a1.038,1.038,0,0,0-.3-.887l-.788-.788,1.084-.148a.947.947,0,0,0,.739-.542l.493-.986.493.986a1.032,1.032,0,0,0,.739.542l1.084.148-.788.788a.994.994,0,0,0-.3.887l.2,1.084-.986-.542a.732.732,0,0,0-.443-.1,1.438,1.438,0,0,0-.443.1Z" transform="translate(-217.037 -627.967)" fill="#010101"/>
  <path id="Path_1780" data-name="Path 1780" d="M234.54,643.6l-3.794-5.519a9.852,9.852,0,1,0-18.38-4.928,9.671,9.671,0,0,0,1.084,4.435L209.31,643.6a.887.887,0,0,0,0,1.084.966.966,0,0,0,.986.443l3.646-.641.69,3.055a.943.943,0,0,0,.788.739h.148a.968.968,0,0,0,.838-.444l3.3-5.174a10.317,10.317,0,0,0,2.513.345,8.629,8.629,0,0,0,1.971-.2l3.252,5.026a.968.968,0,0,0,.838.444h.148a.943.943,0,0,0,.788-.739l.69-3.055,3.646.641a.966.966,0,0,0,.986-.443A1.067,1.067,0,0,0,234.54,643.6Zm-16.754-1.577-1.823,2.858-.394-1.675a1,1,0,0,0-.936-.788h-.148l-2.267.394,2.316-3.4a10.482,10.482,0,0,0,1.478,1.478.048.048,0,0,1,.049.049,4.461,4.461,0,0,0,.788.542.172.172,0,0,1,.1.049c.246.148.493.3.788.443A.048.048,0,0,0,217.785,642.025Zm1.774-1.38a8.276,8.276,0,0,1-3.794-2.809l-.049-.049a5.2,5.2,0,0,1-.345-.542,7.563,7.563,0,0,1-1.133-4.041,7.884,7.884,0,1,1,13.945,5.026h0a4.9,4.9,0,0,1-.493.542l-.148.148c-.148.1-.246.246-.394.345-.1.049-.148.148-.246.2-.1.1-.2.148-.3.246a.794.794,0,0,1-.345.2c-.1.049-.148.1-.246.148a1.476,1.476,0,0,1-.394.2c-.049.049-.148.049-.2.1a2.061,2.061,0,0,1-.493.2c-.049,0-.1.049-.148.049-.2.049-.394.148-.591.2a7.944,7.944,0,0,1-2.168.3A7.448,7.448,0,0,1,219.559,640.645Zm9.757,1.774a.992.992,0,0,0-1.133.739l-.394,1.675-1.675-2.661.887-.443a.682.682,0,0,0,.2-.148c.2-.148.394-.246.591-.394a2.086,2.086,0,0,1,.345-.246c.148-.1.3-.246.443-.345a1.152,1.152,0,0,0,.345-.345l.345-.345.2-.2,2.07,3.006Z" transform="translate(-209.125 -623.3)" fill="#010101"/>
</svg>
