<svg id="information-micro-icon" xmlns="http://www.w3.org/2000/svg" width="100" height="100" viewBox="0 0 100 100">
  <path id="Path_1776" data-name="Path 1776" d="M364,530.1a50,50,0,1,0,50,50A50.1,50.1,0,0,0,364,530.1Zm0,92.188A42.188,42.188,0,1,1,406.188,580.1,42.261,42.261,0,0,1,364,622.288Z" transform="translate(-314 -530.1)" fill="#33739f"/>
  <path id="Path_1777" data-name="Path 1777" d="M359.816,584h-8.4v-29.3a3.918,3.918,0,0,0-3.906-3.906h-8.594a3.906,3.906,0,1,0,0,7.812H343.6V584h-8.4a3.906,3.906,0,0,0,0,7.813h24.8a3.918,3.918,0,0,0,3.906-3.906A4.09,4.09,0,0,0,359.816,584Z" transform="translate(-297.511 -510.37)" fill="#33739f"/>
  <path id="Path_1778" data-name="Path 1778" d="M341.841,553.381a6.641,6.641,0,1,0-6.641-6.641A6.586,6.586,0,0,0,341.841,553.381Z" transform="translate(-293.794 -520.569)" fill="#33739f"/>
</svg>
