<?xml version="1.0" encoding="UTF-8"?>
<svg id="Layer_1" xmlns="http://www.w3.org/2000/svg" version="1.1" viewBox="0 0 1024 1024">
  <!-- Generator: Adobe Illustrator 29.3.1, SVG Export Plug-In . SVG Version: 2.1.0 Build 151)  -->
  <defs>
    <style>
      .st0 {
        fill: #1c355e;
      }
    </style>
  </defs>
  <path class="st0" d="M66,296.5h203v50.1h-71.6v380.9h-59.7v-380.9h-71.6v-50.1Z"/>
  <path class="st0" d="M288.1,406.3c0-60.3,19.7-113.4,100.9-113.4s86.6,29.8,86.6,78.2v43h-56.1v-29.8c0-27.5-9.6-44.8-34.6-44.8s-37,22.1-37,74v211.3c0,50.7,16.1,59.7,35.2,59.7s36.4-15.5,36.4-51.3v-29.9h56.1v47.8c0,45.4-18.5,80-87.8,80s-99.7-40-99.7-106.9v-217.9Z"/>
  <path class="st0" d="M516.8,296.5h82.4l70.4,358.2h1.2v-358.2h56.1v431h-86l-70.4-367.8h-1.2v367.8h-52.5v-431Z"/>
  <path class="st0" d="M765.7,601.5h56.1v42.4c0,17.3,2.4,40.6,22.7,40.6s24.5-20.9,24.5-43v-345.1h59.7v351.6c0,52.5-25.1,83-84.2,83s-78.8-14.9-78.8-74v-55.5Z"/>
</svg>