<svg xmlns="http://www.w3.org/2000/svg" xmlns:xlink="http://www.w3.org/1999/xlink" width="25.42" height="20" viewBox="0 0 25.42 20">
  <defs>
    <clipPath id="clip-path">
      <rect id="Rectangle_172" data-name="Rectangle 172" width="25.42" height="20" transform="translate(0 0)" fill="none"/>
    </clipPath>
  </defs>
  <g id="List_icon" data-name="List icon" transform="translate(0 0)">
    <g id="Group_192" data-name="Group 192" clip-path="url(#clip-path)">
      <path id="Path_2286" data-name="Path 2286" d="M24.414,0H1.006A1.006,1.006,0,0,0,0,1.006V18.994A1.006,1.006,0,0,0,1.006,20H24.414a1.006,1.006,0,0,0,1.006-1.006V1.006A1.006,1.006,0,0,0,24.414,0M2.012,8.008H6.5v3.984H2.012Zm6.5,0H23.408v3.984H8.514ZM23.408,6H8.514V2.012H23.408ZM6.5,6H2.012V2.012H6.5ZM2.012,14H6.5v3.984H2.012Zm6.5,0H23.408v3.984H8.514Z" transform="translate(0 0)"/>
    </g>
  </g>
</svg>
