<svg xmlns="http://www.w3.org/2000/svg" xmlns:xlink="http://www.w3.org/1999/xlink" width="27" height="27" viewBox="0 0 27 27">
  <defs>
    <clipPath id="clip-path">
      <rect id="Rectangle_162" data-name="Rectangle 162" width="27" height="27" fill="none"/>
    </clipPath>
  </defs>
  <g id="Group_173" data-name="Group 173" transform="translate(0 0)">
    <g id="Group_172" data-name="Group 172" transform="translate(0 0)" clip-path="url(#clip-path)">
      <path id="Path_2275" data-name="Path 2275" d="M27,13.5A13.5,13.5,0,1,1,13.5,0,13.5,13.5,0,0,1,27,13.5" transform="translate(0 0)" fill="#fdd700"/>
      <path id="Path_2276" data-name="Path 2276" d="M26.057,13.906H19.218a1.225,1.225,0,1,0,0,2.449H23.09l-8.836,8.836a1.225,1.225,0,1,0,1.732,1.732l8.846-8.846V22a1.225,1.225,0,0,0,2.449,0v-6.87a1.225,1.225,0,0,0-1.225-1.225" transform="translate(-7.089 -7.094)" fill="#fff"/>
    </g>
  </g>
</svg>
