<svg xmlns="http://www.w3.org/2000/svg" width="15.465" height="15.115" viewBox="0 0 15.465 15.115"><g transform="translate(0 -42.58)"><path d="M229.367,638.82a.443.443,0,0,0,.268.06.573.573,0,0,0,.358-.119.621.621,0,0,0,.239-.6l-.268-1.55,1.133-1.1a.658.658,0,0,0,.149-.626.619.619,0,0,0-.477-.417l-1.55-.239-.686-1.4a.6.6,0,0,0-1.073,0l-.686,1.4-1.55.239a.539.539,0,0,0-.477.417.7.7,0,0,0,.149.626l1.133,1.1-.268,1.55a.648.648,0,0,0,.239.6.665.665,0,0,0,.626.06l1.4-.745Zm-2.266-1.61.119-.656a.628.628,0,0,0-.179-.537l-.477-.477.656-.089a.573.573,0,0,0,.447-.328l.3-.6.3.6a.625.625,0,0,0,.447.328l.656.089-.477.477a.6.6,0,0,0-.179.537l.119.656-.6-.328a.443.443,0,0,0-.268-.06.868.868,0,0,0-.268.06Z" transform="translate(-220.073 -587.178)" fill="#2e2e2e"/><path d="M224.5,635.583l-2.3-3.339a5.96,5.96,0,1,0-11.12-2.981,5.851,5.851,0,0,0,.656,2.683l-2.5,3.637a.537.537,0,0,0,0,.656.585.585,0,0,0,.6.268l2.206-.388.417,1.848a.57.57,0,0,0,.477.447h.089a.586.586,0,0,0,.507-.268l2-3.13a6.248,6.248,0,0,0,1.52.209,5.224,5.224,0,0,0,1.192-.119l1.968,3.041a.586.586,0,0,0,.507.268h.089a.57.57,0,0,0,.477-.447l.417-1.848,2.206.388a.585.585,0,0,0,.6-.268A.645.645,0,0,0,224.5,635.583Zm-10.136-.954-1.1,1.729-.239-1.014a.6.6,0,0,0-.566-.477h-.089l-1.371.238,1.4-2.057a6.335,6.335,0,0,0,.894.894.029.029,0,0,1,.03.03,2.7,2.7,0,0,0,.477.328.1.1,0,0,1,.06.03c.149.089.3.179.477.268A.029.029,0,0,0,214.365,634.629Zm1.073-.835a5.007,5.007,0,0,1-2.3-1.7l-.03-.03a3.151,3.151,0,0,1-.209-.328,4.577,4.577,0,0,1-.686-2.445,4.77,4.77,0,1,1,8.437,3.041h0a2.968,2.968,0,0,1-.3.328l-.089.089c-.089.06-.149.149-.238.209-.06.03-.089.089-.149.119-.06.06-.119.089-.179.149a.481.481,0,0,1-.209.119c-.06.03-.089.06-.149.09a.893.893,0,0,1-.238.119c-.03.03-.089.03-.119.06a1.25,1.25,0,0,1-.3.119c-.03,0-.06.03-.089.03-.119.03-.239.089-.358.119a4.8,4.8,0,0,1-1.312.179A4.508,4.508,0,0,1,215.438,633.794Zm5.9,1.073a.6.6,0,0,0-.686.447l-.238,1.014-1.014-1.61.537-.268a.411.411,0,0,0,.119-.089c.119-.089.239-.149.358-.239a1.276,1.276,0,0,1,.209-.149c.089-.06.179-.149.268-.209a.7.7,0,0,0,.209-.209l.209-.209.119-.119,1.252,1.819Z" transform="translate(-209.125 -580.72)" fill="#2e2e2e"/></g></svg>