<svg xmlns="http://www.w3.org/2000/svg" width="123.689" height="93.304" viewBox="0 0 123.689 93.304">
  <path id="airplane-transportation-micro-icon" d="M714.424,645.616a13.653,13.653,0,0,0-17.7-7.865l-23.99,9.635L638.72,632.245a4.342,4.342,0,0,0-3.146,0l-18.68,8.259a4.17,4.17,0,0,0-2.36,3.736,3.884,3.884,0,0,0,2.36,3.539l27.332,11.208-17.5,7.079-13.568-5.309a4.342,4.342,0,0,0-3.146,0l-16.124,7.275a3.78,3.78,0,0,0-2.163,2.95,4.144,4.144,0,0,0,1.18,3.539l23.99,23.99a3.9,3.9,0,0,0,4.326.787L651.5,686.713l-12.978,33.035a4.036,4.036,0,0,0,.983,4.326,3.882,3.882,0,0,0,2.753,1.18,4.329,4.329,0,0,0,1.573-.2l18.09-7.472a4.3,4.3,0,0,0,1.966-1.77l22.023-42.67,20.843-9.242a13.559,13.559,0,0,0,7.472-7.276A15.22,15.22,0,0,0,714.424,645.616Zm-7.472,7.275a5.865,5.865,0,0,1-3.343,3.146l-22.22,9.832a4.3,4.3,0,0,0-1.966,1.77L657.6,710.309l-8.259,3.343,12.978-33.035a4.036,4.036,0,0,0-.983-4.326,3.882,3.882,0,0,0-2.753-1.18,2.365,2.365,0,0,0-1.573.393l-36.378,15.141-18.09-18.09,9.438-4.129,13.568,5.309a3.833,3.833,0,0,0,2.95,0l27.922-11.208a3.845,3.845,0,0,0,2.556-3.736,4.406,4.406,0,0,0-2.36-3.736l-27.726-11.208,8.652-3.736,33.821,15.141a4.343,4.343,0,0,0,3.146,0l25.563-10.225a5.814,5.814,0,0,1,7.472,3.343A7.119,7.119,0,0,1,706.952,652.892Z" transform="translate(-591.675 -631.95)" fill="#020202"/>
</svg>
