<svg xmlns="http://www.w3.org/2000/svg" width="15.309" height="15.024" viewBox="0 0 15.309 15.024"><path d="M328.541,635.2h-.685v-3.991a.609.609,0,0,0,.476-.6v-1.34a.573.573,0,0,0,.566-.6v-1.727a.588.588,0,0,0-.357-.536l-6.879-2.919a.658.658,0,0,0-.477,0l-6.879,2.919a.588.588,0,0,0-.357.536v1.727a.6.6,0,0,0,.6.6h.06v1.34a.606.606,0,0,0,.506.6V635.2H314.4a.6.6,0,0,0-.6.6v2.085a.6.6,0,0,0,.6.6h14.116a.6.6,0,0,0,.6-.6v-2.085A.555.555,0,0,0,328.541,635.2Zm-3.574,0v-3.991h1.7V635.2Zm-4.08-3.991V635.2h-1.7v-3.991Zm1.191,0h1.7V635.2h-1.7Zm-6.909-3.871,6.284-2.68,6.284,2.68v.745H315.17Zm11.972,1.936v.745H315.8v-.745Zm-10.84,1.936H318V635.2h-1.7Zm11.644,6.075H315.021v-.893h12.925Z" transform="translate(-313.8 -623.45)" fill="#2e2e2e"/></svg>