<svg xmlns="http://www.w3.org/2000/svg" width="15" height="14.97" viewBox="0 0 15 14.97"><path d="M223.284,454.18a7.58,7.58,0,0,0,.416-2.5,7.492,7.492,0,0,0-7.485-7.485h-.178a7.52,7.52,0,0,0-7.337,7.485,7.713,7.713,0,0,0,.416,2.5c0,.03,0,.03.03.059a7.491,7.491,0,0,0,14.079,0A.064.064,0,0,0,223.284,454.18Zm-13.366-2.465a6.3,6.3,0,0,1,.238-1.693h2.109a13.6,13.6,0,0,0-.089,1.574,12.113,12.113,0,0,0,.119,1.812h-2.139A6.3,6.3,0,0,1,209.918,451.715Zm3.446-.119a12.871,12.871,0,0,1,.089-1.574h2.168v3.386h-2.139A16.877,16.877,0,0,1,213.363,451.6Zm5.257-2.762h-1.812v-3.208A5.168,5.168,0,0,1,218.621,448.834Zm-3-3.3v3.3h-1.96A4.978,4.978,0,0,1,215.621,445.537Zm0,9.059v3.089a4.732,4.732,0,0,1-1.9-3.089Zm1.188,3v-3h1.752A4.838,4.838,0,0,1,216.809,457.6Zm0-4.188v-3.386h2.02a13.6,13.6,0,0,1,.089,1.574,16.873,16.873,0,0,1-.119,1.812Zm3.208-3.386h2.257a6.3,6.3,0,0,1,.238,1.693,6.7,6.7,0,0,1-.238,1.723h-2.257a11.852,11.852,0,0,0,.119-1.812C220.106,451.061,220.076,450.527,220.017,450.022Zm1.812-1.188h-1.99a8.4,8.4,0,0,0-1.129-2.911A6.455,6.455,0,0,1,221.829,448.834Zm-8.317-2.822a8.742,8.742,0,0,0-1.069,2.822H210.6A6.522,6.522,0,0,1,213.512,446.012Zm-2.881,8.584H212.5a8.681,8.681,0,0,0,1.188,2.851A6.335,6.335,0,0,1,210.631,454.6Zm7.9,2.941a8.134,8.134,0,0,0,1.248-2.941h2.02A6.1,6.1,0,0,1,218.532,457.537Z" transform="translate(-208.7 -444.2)" fill="#010101"/></svg>