<svg xmlns="http://www.w3.org/2000/svg" width="14.922" height="14.922" viewBox="0 0 14.922 14.922"><g transform="translate(0 -41.917)"><path d="M319.361,364.2a7.461,7.461,0,1,0,7.461,7.461A7.472,7.472,0,0,0,319.361,364.2Zm0,13.718a6.286,6.286,0,1,1,6.286-6.286A6.293,6.293,0,0,1,319.361,377.918Z" transform="translate(-311.9 -322.283)" fill="#2e2e2e"/><path d="M337.549,378.613h-2.174v-3.525a.587.587,0,1,0-1.175,0V379.2a.589.589,0,0,0,.587.587h2.761a.587.587,0,0,0,0-1.175Z" transform="translate(-327.649 -329.558)" fill="#2e2e2e"/></g></svg>