<svg xmlns="http://www.w3.org/2000/svg" xmlns:xlink="http://www.w3.org/1999/xlink" width="18.63" height="15" viewBox="0 0 18.63 15">
  <defs>
    <clipPath id="clip-path">
      <rect id="Rectangle_199" data-name="Rectangle 199" width="18.63" height="15" fill="none"/>
    </clipPath>
  </defs>
  <g id="justice-scales-balanced-micro-icon" transform="translate(0 0)">
    <g id="Group_237" data-name="Group 237" transform="translate(0 0.001)" clip-path="url(#clip-path)">
      <path id="Path_2500" data-name="Path 2500" d="M18.038,7.63h-.073L15.977,2.5h1.584a.592.592,0,1,0,0-1.184H11.1c-.01,0-.019,0-.029,0a1.857,1.857,0,0,0-3.554,0H1.069a.592.592,0,0,0,0,1.184H2.653L.664,7.63H.592A.592.592,0,0,0,0,8.222a3.517,3.517,0,1,0,7.035,0,.592.592,0,0,0-.592-.592H6.371L4.381,2.5H7.53l.022,0a1.863,1.863,0,0,0,1.16,1.122v10.2h-2.2a.592.592,0,1,0,0,1.184h5.6a.592.592,0,0,0,0-1.184H9.9V3.613a1.863,1.863,0,0,0,1.14-1.119c.021,0,.042.006.064.006h3.149L12.259,7.63h-.072a.592.592,0,0,0-.592.592,3.518,3.518,0,1,0,7.035,0,.592.592,0,0,0-.592-.592M3.517,10.556A2.338,2.338,0,0,1,1.259,8.814H5.775a2.338,2.338,0,0,1-2.258,1.742M1.933,7.63,3.517,3.546,5.1,7.63Zm7.36-5.1a.674.674,0,1,1,.674-.674.675.675,0,0,1-.674.674m5.819,1.014L16.7,7.63H13.528Zm0,7.01a2.338,2.338,0,0,1-2.258-1.742H17.37a2.338,2.338,0,0,1-2.258,1.742" transform="translate(0 0)"/>
    </g>
  </g>
</svg>
