
<svg xmlns="http://www.w3.org/2000/svg" xmlns:xlink="http://www.w3.org/1999/xlink" width="14.236" height="15" viewBox="0 0 14.236 15">
  <defs>
    <clipPath id="clip-path">
      <rect id="Rectangle_187" data-name="Rectangle 187" width="14.236" height="15" transform="translate(0 0)" fill="none"/>
    </clipPath>
  </defs>
  <g id="Apple" transform="translate(0 0)">
    <g id="Group_194" data-name="Group 194" transform="translate(0 0)" clip-path="url(#clip-path)">
      <path id="Path_2287" data-name="Path 2287" d="M17.029,23.53c-.579,0-1.015.678-1.015,1.578s.436,1.578,1.015,1.578,1.015-.679,1.015-1.578-.437-1.578-1.015-1.578m0,2.417c-.067-.018-.279-.3-.279-.839a1.054,1.054,0,0,1,.272-.839c.067.017.279.3.279.839a1.056,1.056,0,0,1-.272.839" transform="translate(-11.277 -16.57)"/>
      <path id="Path_2288" data-name="Path 2288" d="M26.747,23.53c-.579,0-1.015.678-1.015,1.578s.436,1.578,1.015,1.578,1.015-.679,1.015-1.578-.437-1.578-1.015-1.578m0,2.417c-.067-.018-.279-.3-.279-.839a1.054,1.054,0,0,1,.272-.839c.067.017.279.3.279.839a1.056,1.056,0,0,1-.272.839" transform="translate(-18.121 -16.57)"/>
      <path id="Path_2289" data-name="Path 2289" d="M14.236,7.321a4.526,4.526,0,0,0-3.019-4.26,5.176,5.176,0,0,0,.4-1.831.591.591,0,0,0-.365-.547,3.774,3.774,0,0,0-3.211.3,2.907,2.907,0,0,0-.263.2V.592A.592.592,0,1,0,6.6.592V3.308A4.513,4.513,0,0,0,0,7.321c0,.075,0,.149.008.224a.59.59,0,0,0,0,.209l.024.114A4.515,4.515,0,0,0,.3,8.93c.925,3.1,3.586,6.028,5.487,6.028a2.006,2.006,0,0,0,1.324-.516A1.742,1.742,0,0,0,8.294,15c2.046,0,4.679-2.834,5.643-6.07A4.53,4.53,0,0,0,14.2,7.868l.024-.114a.565.565,0,0,0,0-.2c0-.078.008-.156.008-.235M8.7,1.963a2.57,2.57,0,0,1,1.7-.3,3.912,3.912,0,0,1-.37,1.147c-.1-.007-.207-.016-.313-.016a4.5,4.5,0,0,0-1.867.409A2.209,2.209,0,0,1,8.7,1.963m4.338,5.63a.509.509,0,0,0,0,.06h0c0,.017-.006.033-.008.05a3.317,3.317,0,0,1-.2.822c-.006.015-.011.03-.015.046-.834,2.825-3.18,5.245-4.515,5.245-.174,0-.5-.322-.665-.608a.592.592,0,0,0-.511-.293H7.1a.59.59,0,0,0-.51.318,1.045,1.045,0,0,1-.808.54c-1.244,0-3.546-2.449-4.359-5.2,0-.016-.01-.031-.016-.046a3.317,3.317,0,0,1-.2-.822q0-.025-.008-.05a.61.61,0,0,0,0-.062c-.007-.09-.014-.18-.014-.272a3.335,3.335,0,0,1,5.543-2.5.592.592,0,0,0,.783,0,3.335,3.335,0,0,1,5.543,2.5c0,.092-.007.182-.014.272" transform="translate(0 0)"/>
    </g>
  </g>
</svg>
