<svg xmlns="http://www.w3.org/2000/svg" xmlns:xlink="http://www.w3.org/1999/xlink" width="11.223" height="15" viewBox="0 0 11.223 15">
  <defs>
    <clipPath id="clip-path">
      <rect id="Rectangle_196" data-name="Rectangle 196" width="11.223" height="15" fill="none"/>
    </clipPath>
  </defs>
  <g id="undeclared-U-micro-icon" transform="translate(0 0)">
    <g id="Group_234" data-name="Group 234" transform="translate(0 0)" clip-path="url(#clip-path)">
      <path id="Path_2488" data-name="Path 2488" d="M5.5,15a5.73,5.73,0,0,1-2.576-.622,5.625,5.625,0,0,1-1.138-.77,5.019,5.019,0,0,1-.938-1.086A5.405,5.405,0,0,1,.229,11.15,5.754,5.754,0,0,1,0,9.5V.736A.736.736,0,0,1,.736,0H2.131a.736.736,0,0,1,.736.736V9.591a2.653,2.653,0,0,0,.227,1.125,2.732,2.732,0,0,0,.607.851,2.661,2.661,0,0,0,.841.532,2.81,2.81,0,0,0,1.992.006,2.881,2.881,0,0,0,.925-.51,2.55,2.55,0,0,0,.651-.827,2.485,2.485,0,0,0,.245-1.139V.736A.736.736,0,0,1,9.092,0h1.394a.736.736,0,0,1,.736.736v8.8a5.443,5.443,0,0,1-.236,1.629,5.17,5.17,0,0,1-1.63,2.446,5.928,5.928,0,0,1-1.183.769,6.067,6.067,0,0,1-1.314.467A6.129,6.129,0,0,1,5.5,15" transform="translate(0 0)"/>
    </g>
  </g>
</svg>
