<svg xmlns="http://www.w3.org/2000/svg" width="198.247" height="200" viewBox="0 0 198.247 200">
  <g id="diploma-certificate-icon" transform="translate(-1099.1 -2645.2)">
    <rect id="Rectangle_40" data-name="Rectangle 40" width="119.237" height="5.26" transform="translate(1138.811 2681.198)" fill="#010101"/>
    <rect id="Rectangle_41" data-name="Rectangle 41" width="119.237" height="5.26" transform="translate(1138.811 2700.796)" fill="#010101"/>
    <rect id="Rectangle_42" data-name="Rectangle 42" width="119.237" height="5.26" transform="translate(1138.811 2720.394)" fill="#010101"/>
    <path id="Path_762" data-name="Path 762" d="M1294.665,2645.2H1101.679a2.554,2.554,0,0,0-2.579,2.579v160.8a2.554,2.554,0,0,0,2.579,2.579h63.641a2.579,2.579,0,1,0,0-5.157H1104.36V2650.46h187.726V2806H1230.1a2.579,2.579,0,1,0,0,5.157h64.672a2.553,2.553,0,0,0,2.579-2.579v-160.8A2.713,2.713,0,0,0,1294.665,2645.2Z" fill="#010101"/>
    <path id="Path_763" data-name="Path 763" d="M1224.076,2775.057a11.491,11.491,0,0,0,4.023-10.83,11.034,11.034,0,0,0-7.53-8.561,11.234,11.234,0,0,0-15.059-12.687,11.373,11.373,0,0,0-9.9-5.879,11.16,11.16,0,0,0-10.211,6.6,20.015,20.015,0,0,0-18.36,32.388,11.088,11.088,0,0,0,.206,11.552,10.844,10.844,0,0,0,4.539,4.126v47.86a2.7,2.7,0,0,0,1.444,2.372,2.352,2.352,0,0,0,1.135.31,3.116,3.116,0,0,0,1.65-.516l19.495-15.472L1215,2841.793a2.426,2.426,0,0,0,1.65.516,2.079,2.079,0,0,0,1.135-.31,2.515,2.515,0,0,0,1.444-2.372v-48.479a11.518,11.518,0,0,0,5.054-4.642A11.353,11.353,0,0,0,1224.076,2775.057Zm-26.921,45.694c-.1,0-.1-.1-.206-.1s-.1-.1-.206-.1-.206-.1-.309-.1-.1-.1-.206-.1a.379.379,0,0,1-.31-.1h-1.238c-.1,0-.206.1-.309.1s-.1.1-.206.1a.36.36,0,0,0-.206.1c-.1,0-.1.1-.206.1l-16.916,13.409V2792.7h.31a11.269,11.269,0,0,0,7.53,8.767,10.618,10.618,0,0,0,3.61.619,11.72,11.72,0,0,0,7.633-2.888,11.266,11.266,0,0,0,18.154-5.467v40.433Zm21.97-48.788a2.625,2.625,0,0,0-1.65,2.063,2.566,2.566,0,0,0,.928,2.475,6.047,6.047,0,0,1-5.879,10.315,2.6,2.6,0,0,0-2.579.516,2.5,2.5,0,0,0-.825,2.475,6.006,6.006,0,0,1-11.036,4.229,2.474,2.474,0,0,0-2.269-1.238,2.688,2.688,0,0,0-2.269,1.341,5.978,5.978,0,0,1-11.14-3.816,2.809,2.809,0,0,0-.928-2.476,2.53,2.53,0,0,0-1.65-.619,3.018,3.018,0,0,0-.928.206,5.919,5.919,0,0,1-7.22-2.476,6,6,0,0,1,1.135-7.633,2.5,2.5,0,0,0,.825-2.475,2.6,2.6,0,0,0-1.753-1.96,6.072,6.072,0,0,1-4.023-6.5,5.957,5.957,0,0,1,5.673-5.157,2.688,2.688,0,0,0,2.269-1.341,2.556,2.556,0,0,0-.1-2.578,5.945,5.945,0,0,1,1.031-7.53,6.08,6.08,0,0,1,8.355.206,2.577,2.577,0,0,0,4.435-1.754,5.979,5.979,0,0,1,11.862-.722,2.671,2.671,0,0,0,1.65,1.96,2.891,2.891,0,0,0,2.579-.412,5.949,5.949,0,0,1,8.974,7.53,2.84,2.84,0,0,0,0,2.578,2.688,2.688,0,0,0,2.269,1.341,5.977,5.977,0,0,1,5.879,4.848A5.7,5.7,0,0,1,1219.125,2771.963Z" transform="translate(1.997 2.892)" fill="#010101"/>
  </g>
</svg>
