<svg xmlns="http://www.w3.org/2000/svg" xmlns:xlink="http://www.w3.org/1999/xlink" width="15.343" height="15" viewBox="0 0 15.343 15">
  <defs>
    <clipPath id="clip-path">
      <rect id="Rectangle_191" data-name="Rectangle 191" width="15.343" height="15" transform="translate(0 0)" fill="none"/>
    </clipPath>
  </defs>
  <g id="Ribbon_2" data-name="Ribbon 2" transform="translate(0 0)">
    <g id="Group_202" data-name="Group 202" transform="translate(0 0)" clip-path="url(#clip-path)">
      <path id="Path_2297" data-name="Path 2297" d="M15.239,12.164l-2.274-3.3A5.911,5.911,0,1,0,1.933,5.914a5.868,5.868,0,0,0,.641,2.663L.1,12.164a.59.59,0,0,0,.587.916L2.865,12.7l.424,1.838a.591.591,0,0,0,.474.449.625.625,0,0,0,.1.009.59.59,0,0,0,.5-.271l1.991-3.1a5.815,5.815,0,0,0,2.689.078l1.941,3.023a.59.59,0,0,0,.5.271.625.625,0,0,0,.1-.009.591.591,0,0,0,.474-.449l.424-1.838,2.175.376a.59.59,0,0,0,.587-.916M5.22,11.207l-1.1,1.706-.235-1.018a.591.591,0,0,0-.676-.449l-1.343.232,1.4-2.028a5.966,5.966,0,0,0,.888.876l.03.023q.224.177.466.333l.071.043c.151.094.306.182.465.263l.032.018m1.06-.831A4.738,4.738,0,0,1,4.259,8.993l0,0c-.082-.1-.159-.2-.234-.3l-.03-.04c-.07-.1-.135-.2-.2-.3a4.73,4.73,0,1,1,7.7.571l-.014.015q-.132.158-.277.3c-.028.028-.057.054-.086.081-.074.071-.149.14-.227.207-.047.039-.1.076-.143.114s-.124.1-.189.141-.129.087-.2.129q-.075.048-.153.093c-.08.046-.161.091-.244.132l-.115.055c-.1.045-.194.089-.293.127l-.071.026c-.114.042-.23.082-.348.116a4.643,4.643,0,0,1-2.866-.086m5.849,1.071a.589.589,0,0,0-.676.449l-.235,1.018L10.2,11.334a5.916,5.916,0,0,0,.533-.267c.045-.025.088-.054.132-.08.123-.074.245-.15.362-.232.067-.047.132-.1.2-.147.089-.068.177-.137.262-.21s.148-.132.22-.2.137-.132.2-.2c.038-.04.081-.076.119-.118l1.239,1.8Z" transform="translate(0 0)"/>
      <path id="Path_2298" data-name="Path 2298" d="M23.9,15.037v-.5a.369.369,0,0,0-.369-.369H21.654c.027-.029.055-.058.084-.086a3.2,3.2,0,0,1,.323-.269q.2-.142.41-.288.249-.17.481-.341a3.2,3.2,0,0,0,.459-.405,1.994,1.994,0,0,0,.348-.518,1.6,1.6,0,0,0,.14-.676,1.756,1.756,0,0,0-.117-.627,1.61,1.61,0,0,0-.358-.557,1.743,1.743,0,0,0-.58-.384A2.264,2.264,0,0,0,21.314,10a1.862,1.862,0,0,0-.618.369,1.887,1.887,0,0,0-.424.569,2.145,2.145,0,0,0-.2.717.369.369,0,0,0,.367.408h.543a.369.369,0,0,0,.368-.348.908.908,0,0,1,.068-.308.622.622,0,0,1,.142-.209.615.615,0,0,1,.212-.131.8.8,0,0,1,.535-.008.475.475,0,0,1,.168.109.542.542,0,0,1,.119.193.846.846,0,0,1,.049.3.306.306,0,0,1-.042.152,1.127,1.127,0,0,1-.177.231,2.465,2.465,0,0,1-.292.252c-.123.092-.25.182-.384.275q-.227.159-.467.339a4.818,4.818,0,0,0-.481.413,3.281,3.281,0,0,0-.418.5,2.121,2.121,0,0,0-.288.636.362.362,0,0,0-.013.1v.47a.369.369,0,0,0,.369.369H23.53a.369.369,0,0,0,.369-.369" transform="translate(-14.147 -6.963)"/>
    </g>
  </g>
</svg>
