<svg xmlns="http://www.w3.org/2000/svg" xmlns:xlink="http://www.w3.org/1999/xlink" width="17.762" height="14" viewBox="0 0 17.762 14"><defs><clipPath id="a"><rect width="17.761" height="14" fill="none"/></clipPath></defs><g transform="translate(0 0)"><g transform="translate(0 0)" clip-path="url(#a)"><path d="M4.082,10.563H18.2a.631.631,0,0,0,.631-.631V.631A.631.631,0,0,0,18.2,0H4.082a.632.632,0,0,0-.631.631v9.3a.631.631,0,0,0,.631.631m.631-9.3h12.85V9.3H4.714Z" transform="translate(-2.361 0)"/><path d="M23.511,7.6a1.976,1.976,0,0,0-1.7,2.988h0a20.375,20.375,0,0,0,1.7,2.556,19.137,19.137,0,0,0,1.651-2.473h0A1.978,1.978,0,0,0,23.511,7.6m0,2.8a.818.818,0,1,1,.818-.818.818.818,0,0,1-.818.818" transform="translate(-14.733 -5.197)"/><path d="M17.585,37.211h-6.6v.3a.192.192,0,0,1-.192.192H7.063a.191.191,0,0,1-.191-.191v-.3H.176A.173.173,0,0,0,0,37.4c.093.983.6,2.067,1.611,2.067H16.149c1.007,0,1.519-1.084,1.611-2.067a.173.173,0,0,0-.176-.184" transform="translate(0 -25.463)"/></g></g></svg>