<svg xmlns="http://www.w3.org/2000/svg" xmlns:xlink="http://www.w3.org/1999/xlink" width="117.647" height="100" viewBox="0 0 117.647 100">
  <defs>
    <clipPath id="clip-path">
      <rect id="Rectangle_208" data-name="Rectangle 208" width="102.632" height="100" fill="none"/>
    </clipPath>
    <clipPath id="clip-MICRO:_languages_speech_bubble_globe">
      <rect width="117.647" height="100"/>
    </clipPath>
  </defs>
  <g id="MICRO:_languages_speech_bubble_globe" data-name="MICRO: languages, speech bubble, globe" clip-path="url(#clip-MICRO:_languages_speech_bubble_globe)">
    <g id="Group_247" data-name="Group 247" transform="translate(8.23 0)">
      <g id="Group_246" data-name="Group 246" transform="translate(0 0)" clip-path="url(#clip-path)">
        <path id="Path_2522" data-name="Path 2522" d="M102.632,43.1c0-23.765-23.018-43.1-51.31-43.1h-.008c-.122,0-.244.006-.368.008-.033,0-.065-.008-.1-.008-.059,0-.114.012-.171.014C22.676.3,0,19.514,0,43.1,0,57.409,8.232,70.516,22.149,78.575V96.068a3.933,3.933,0,0,0,6.5,2.98l15.431-13.28a61.113,61.113,0,0,0,7.237.436l.006,0v0l0,0c28.293,0,51.31-19.336,51.31-43.1m-94.769,0a28.9,28.9,0,0,1,1.441-9H25.068a70.206,70.206,0,0,0,.179,18.185H9.372A29.056,29.056,0,0,1,7.864,43.1m24.563-.531a61.639,61.639,0,0,1,.6-8.466h14.36V52.291H33.206a61.208,61.208,0,0,1-.779-9.72m34.6-16.33H55.252V8.955c5.025,2.428,9.309,8.835,11.77,17.287M47.388,8.525V26.242H34.674c2.615-8.981,7.282-15.679,12.714-17.717m0,51.631V76.62c-5.174-1.94-9.635-8.125-12.311-16.465ZM55.252,76.19V60.155H66.618c-2.509,7.825-6.6,13.73-11.365,16.035m0-23.9V34.106H68.666a61.327,61.327,0,0,1,.6,8.466,61.209,61.209,0,0,1-.779,9.72ZM76.628,34.106h16.7a28.777,28.777,0,0,1-.067,18.185H76.447a70.327,70.327,0,0,0,.686-9.72,70.894,70.894,0,0,0-.505-8.466M89.46,26.242H75.187a47.541,47.541,0,0,0-6.773-15.531C77.383,13.837,84.8,19.341,89.46,26.242M32.972,11.169a47.93,47.93,0,0,0-6.462,15.073H13.17a41.382,41.382,0,0,1,19.8-15.073M27.9,72.763A39.786,39.786,0,0,1,13.3,60.155H26.85c2.369,8.662,6.443,15.718,11.588,20.09L30.013,87.5V76.249A3.929,3.929,0,0,0,27.9,72.763m39.532,3.053a45.4,45.4,0,0,0,7.416-15.661H89.325c-4.834,7.058-12.571,12.63-21.893,15.661" transform="translate(0 0)"/>
      </g>
    </g>
  </g>
</svg>
