<svg xmlns="http://www.w3.org/2000/svg" xmlns:xlink="http://www.w3.org/1999/xlink" width="13.865" height="15" viewBox="0 0 13.865 15">
  <defs>
    <clipPath id="clip-path">
      <rect id="Rectangle_188" data-name="Rectangle 188" width="13.865" height="15" transform="translate(0 0)" fill="none"/>
    </clipPath>
  </defs>
  <g id="Capitol_M" data-name="Capitol M" transform="translate(0 0)">
    <g id="Group_196" data-name="Group 196" transform="translate(0 0)" clip-path="url(#clip-path)">
      <path id="Path_2290" data-name="Path 2290" d="M13.13,0H11.268a.736.736,0,0,0-.688.475L6.9,10.185,3.287.479A.735.735,0,0,0,2.6,0H.735A.735.735,0,0,0,0,.735V14.265A.735.735,0,0,0,.735,15H2.171a.735.735,0,0,0,.735-.735V7.234l2.727,7.288A.735.735,0,0,0,6.322,15H7.631a.736.736,0,0,0,.69-.482l2.638-7.2v6.949a.735.735,0,0,0,.735.735H13.13a.735.735,0,0,0,.735-.735V.735A.735.735,0,0,0,13.13,0" transform="translate(0 0)"/>
    </g>
  </g>
</svg>
