<svg xmlns="http://www.w3.org/2000/svg" xmlns:xlink="http://www.w3.org/1999/xlink" width="14.041" height="11" viewBox="0 0 14.041 11">
  <defs>
    <clipPath id="clip-path">
      <rect id="Rectangle_189" data-name="Rectangle 189" width="14.041" height="11" transform="translate(0 0)" fill="none"/>
    </clipPath>
  </defs>
  <g id="Lowercase_m" data-name="Lowercase m" transform="translate(0 0)">
    <g id="Group_198" data-name="Group 198" transform="translate(0 0)" clip-path="url(#clip-path)">
      <path id="Path_2291" data-name="Path 2291" d="M13.769,2.123A3.353,3.353,0,0,0,13,1,3.529,3.529,0,0,0,11.858.264a4.022,4.022,0,0,0-2.4-.147,4.143,4.143,0,0,0-.979.367,4.328,4.328,0,0,0-.9.635q-.054.049-.107.1A3.318,3.318,0,0,0,6.655.49,3.282,3.282,0,0,0,4.062.112,4.089,4.089,0,0,0,3.13.463a4.134,4.134,0,0,0-.387.228A.7.7,0,0,0,2.07.186H.7a.7.7,0,0,0-.7.7V10.3a.7.7,0,0,0,.7.7H2.07a.7.7,0,0,0,.7-.7V4.539a1.543,1.543,0,0,1,.142-.6,2.442,2.442,0,0,1,.424-.661,2.225,2.225,0,0,1,.622-.487,1.407,1.407,0,0,1,.681-.167,1.319,1.319,0,0,1,.379.063.811.811,0,0,1,.3.172.992.992,0,0,1,.238.356,1.8,1.8,0,0,1,.109.687v6.4a.7.7,0,0,0,.7.7H7.737a.7.7,0,0,0,.7-.7V4.437a1.586,1.586,0,0,1,.15-.694,2.043,2.043,0,0,1,.42-.593,1.908,1.908,0,0,1,.57-.388A1.489,1.489,0,0,1,10.621,2.7a.75.75,0,0,1,.307.165.968.968,0,0,1,.237.353,1.838,1.838,0,0,1,.106.687v6.4a.7.7,0,0,0,.7.7H13.34a.7.7,0,0,0,.7-.7V3.513a3.576,3.576,0,0,0-.272-1.39" transform="translate(0 0)"/>
    </g>
  </g>
</svg>
