<svg xmlns="http://www.w3.org/2000/svg" xmlns:xlink="http://www.w3.org/1999/xlink" width="15" height="15" viewBox="0 0 15 15">
  <defs>
    <clipPath id="clip-path">
      <rect id="Rectangle_203" data-name="Rectangle 203" width="15" height="15" transform="translate(0 0)" fill="none"/>
    </clipPath>
  </defs>
  <g id="medical-cross-micro-icon" transform="translate(0 0)">
    <g id="Group_244" data-name="Group 244" transform="translate(0 0)" clip-path="url(#clip-path)">
      <path id="Path_2510" data-name="Path 2510" d="M7.5,0A7.5,7.5,0,1,0,15,7.5,7.508,7.508,0,0,0,7.5,0m0,13.813A6.313,6.313,0,1,1,13.813,7.5,6.321,6.321,0,0,1,7.5,13.813" transform="translate(0 0)"/>
      <path id="Path_2511" data-name="Path 2511" d="M19.011,13.5H16.27V10.756a.258.258,0,0,0-.258-.258H13.756a.258.258,0,0,0-.258.258V13.5H10.756a.258.258,0,0,0-.258.258v2.255a.258.258,0,0,0,.258.258H13.5v2.742a.258.258,0,0,0,.258.258h2.255a.258.258,0,0,0,.258-.258V16.27h2.742a.258.258,0,0,0,.258-.258V13.756a.258.258,0,0,0-.258-.258" transform="translate(-7.384 -7.384)"/>
    </g>
  </g>
</svg>
