<svg xmlns="http://www.w3.org/2000/svg" xmlns:xlink="http://www.w3.org/1999/xlink" width="13.391" height="15" viewBox="0 0 13.391 15">
  <defs>
    <clipPath id="clip-path">
      <rect id="Rectangle_192" data-name="Rectangle 192" width="13.391" height="15" transform="translate(0 0)" fill="none"/>
    </clipPath>
  </defs>
  <g id="Calendar_3" data-name="Calendar 3" transform="translate(0 0)">
    <g id="Group_204" data-name="Group 204" transform="translate(0 0)" clip-path="url(#clip-path)">
      <path id="Path_2299" data-name="Path 2299" d="M12.8,2.018H10.569V0h-1.7V2.018H4.452V0h-1.7V2.018H.589A.589.589,0,0,0,0,2.607v11.8A.589.589,0,0,0,.589,15H12.8a.589.589,0,0,0,.589-.589V2.607a.589.589,0,0,0-.589-.589m-.589,11.8H1.178v-8.9H12.212Z" transform="translate(0 0)"/>
      <path id="Path_2300" data-name="Path 2300" d="M16.242,27.237a2.025,2.025,0,0,0,.442.56,1.87,1.87,0,0,0,.61.356,2.176,2.176,0,0,0,.736.121,2.4,2.4,0,0,0,.7-.1,1.814,1.814,0,0,0,.616-.326,1.645,1.645,0,0,0,.433-.548,1.681,1.681,0,0,0,.163-.75,1.718,1.718,0,0,0-.086-.556,1.5,1.5,0,0,0-.247-.453,1.539,1.539,0,0,0-.262-.256,1.448,1.448,0,0,0,.376-1,1.591,1.591,0,0,0-.125-.629,1.513,1.513,0,0,0-.362-.516,1.655,1.655,0,0,0-.558-.337,2.093,2.093,0,0,0-1.454.03,1.733,1.733,0,0,0-.559.388,1.9,1.9,0,0,0-.362.543,2.645,2.645,0,0,0-.184.594.368.368,0,0,0,.362.435h.525a.368.368,0,0,0,.365-.323.949.949,0,0,1,.067-.247.727.727,0,0,1,.13-.207.6.6,0,0,1,.184-.14.625.625,0,0,1,.451-.009.4.4,0,0,1,.143.09.409.409,0,0,1,.09.146.628.628,0,0,1,.037.223.57.57,0,0,1-.027.174.3.3,0,0,1-.066.113.364.364,0,0,1-.133.083.757.757,0,0,1-.271.04h-.306a.368.368,0,0,0-.368.368v.452a.368.368,0,0,0,.368.368h.306a.892.892,0,0,1,.319.052.639.639,0,0,1,.218.133.558.558,0,0,1,.132.191.624.624,0,0,1,.047.246.459.459,0,0,1-.05.219.623.623,0,0,1-.15.189.716.716,0,0,1-.219.127.759.759,0,0,1-.5.007.642.642,0,0,1-.216-.112.766.766,0,0,1-.186-.22,1.168,1.168,0,0,1-.13-.382.368.368,0,0,0-.362-.3h-.542a.368.368,0,0,0-.36.447,2.7,2.7,0,0,0,.26.716" transform="translate(-11.268 -16.004)"/>
    </g>
  </g>
</svg>
